<?xml version="1.0" encoding="UTF-8" standalone="no"?>
<!-- Created with Inkscape (http://www.inkscape.org/) -->

<svg
   width="500"
   height="500"
   viewBox="0 0 132.29166 132.29167"
   version="1.1"
   id="svg7337"
   inkscape:version="1.2.2 (732a01da63, 2022-12-09)"
   sodipodi:docname="xbox-one-logo-dark-theme.svg"
   inkscape:export-filename="xbox-one-logo-light-theme.png"
   inkscape:export-xdpi="96"
   inkscape:export-ydpi="96"
   xmlns:inkscape="http://www.inkscape.org/namespaces/inkscape"
   xmlns:sodipodi="http://sodipodi.sourceforge.net/DTD/sodipodi-0.dtd"
   xmlns="http://www.w3.org/2000/svg"
   xmlns:svg="http://www.w3.org/2000/svg">
  <sodipodi:namedview
     id="namedview7339"
     pagecolor="#212529"
     bordercolor="#000000"
     borderopacity="0.25"
     inkscape:showpageshadow="2"
     inkscape:pageopacity="0"
     inkscape:pagecheckerboard="0"
     inkscape:deskcolor="#d1d1d1"
     inkscape:document-units="mm"
     showgrid="false"
     inkscape:zoom="0.914906"
     inkscape:cx="396.76207"
     inkscape:cy="560.71334"
     inkscape:window-width="3840"
     inkscape:window-height="2054"
     inkscape:window-x="1609"
     inkscape:window-y="-11"
     inkscape:window-maximized="1"
     inkscape:current-layer="layer1" />
  <defs
     id="defs7334" />
  <g
     inkscape:label="Layer 1"
     inkscape:groupmode="layer"
     id="layer1">
    <g
       style="fill:#ffffff;fill-opacity:1;stroke:none"
       id="g6"
       transform="matrix(0.03877078,0,0,-0.03903768,-9.8439116,144.4303)">
      <path
         style="fill:#ffffff;fill-opacity:1"
         inkscape:connector-curvature="0"
         id="path10"
         d="m 1763,3604 c -122,-15 -279,-51 -378,-89 -110,-41 -245,-107 -245,-120 0,-8 24,-15 63,-19 140,-16 400,-125 635,-264 57,-34 113,-62 123,-62 11,0 66,28 122,62 134,81 355,188 457,222 46,15 118,32 161,39 52,7 79,16 79,24 0,29 -233,128 -395,168 -213,53 -409,65 -622,39 z" />
      <path
         style="fill:#ffffff;fill-opacity:1"
         inkscape:connector-curvature="0"
         id="path12"
         d="M 796,3138 C 529,2866 384,2571 335,2193 c -23,-176 -17,-326 21,-518 37,-185 122,-393 222,-540 66,-98 77,-97 85,8 31,394 337,935 846,1491 44,49 81,95 81,101 0,14 -152,162 -264,258 -150,128 -345,247 -402,247 -22,0 -50,-23 -128,-102 z" />
      <path
         style="fill:#ffffff;fill-opacity:1"
         inkscape:connector-curvature="0"
         id="path14"
         d="m 2923,3211 c -127,-61 -298,-189 -463,-348 -66,-63 -120,-122 -120,-130 0,-8 49,-69 109,-136 432,-481 706,-940 791,-1324 11,-49 20,-116 20,-150 0,-56 2,-63 19,-63 23,0 114,140 171,265 116,249 157,456 147,742 -10,331 -100,602 -285,862 -85,120 -272,311 -304,311 -13,0 -51,-13 -85,-29 z" />
      <path
         style="fill:#ffffff;fill-opacity:1"
         inkscape:connector-curvature="0"
         id="path16"
         d="M 1850,2328 C 1613,2122 1300,1798 1122,1573 933,1335 730,1013 730,953 730,934 835,827 930,748 1264,472 1749,344 2205,411 c 352,52 672,212 938,468 41,39 47,50 47,86 -1,184 -362,640 -959,1211 -162,155 -252,234 -266,234 -12,0 -61,-35 -115,-82 z" />
    </g>
  </g>
</svg>
