<?xml version="1.0" encoding="UTF-8" standalone="no"?>
<!-- Created with Inkscape (http://www.inkscape.org/) -->

<svg
   width="500"
   height="500"
   viewBox="0 0 132.29166 132.29167"
   version="1.1"
   id="svg7337"
   inkscape:version="1.2.2 (732a01da63, 2022-12-09)"
   sodipodi:docname="android-logo-light-theme.svg"
   inkscape:export-filename="android-logo-dark-theme.png"
   inkscape:export-xdpi="96"
   inkscape:export-ydpi="96"
   xmlns:inkscape="http://www.inkscape.org/namespaces/inkscape"
   xmlns:sodipodi="http://sodipodi.sourceforge.net/DTD/sodipodi-0.dtd"
   xmlns="http://www.w3.org/2000/svg"
   xmlns:svg="http://www.w3.org/2000/svg">
  <sodipodi:namedview
     id="namedview7339"
     pagecolor="#ffffff"
     bordercolor="#000000"
     borderopacity="0.25"
     inkscape:showpageshadow="2"
     inkscape:pageopacity="0"
     inkscape:pagecheckerboard="0"
     inkscape:deskcolor="#d1d1d1"
     inkscape:document-units="mm"
     showgrid="false"
     inkscape:zoom="0.914906"
     inkscape:cx="396.76207"
     inkscape:cy="560.71334"
     inkscape:window-width="3840"
     inkscape:window-height="2054"
     inkscape:window-x="1609"
     inkscape:window-y="-11"
     inkscape:window-maximized="1"
     inkscape:current-layer="layer1" />
  <defs
     id="defs7334" />
  <g
     inkscape:label="Layer 1"
     inkscape:groupmode="layer"
     id="layer1">
    <path
       class="a"
       d="m 95.429623,83.842828 a 5.3092411,5.3092411 0 1 1 5.309247,-5.309244 5.3092411,5.3092411 0 0 1 -5.309247,5.309244 m -58.45697,0 a 5.3092411,5.3092411 0 1 1 5.309236,-5.309244 5.3092411,5.3092411 0 0 1 -5.309236,5.309244 M 97.309963,51.98738 107.92845,33.68156 a 2.191721,2.191721 0 1 0 -3.816,-2.156884 L 93.383326,50.051717 A 64.804815,64.804815 0 0 0 66.228784,44.18943 65.896527,65.896527 0 0 0 39.018923,49.996421 l -10.72909,-18.52705 a 2.191721,2.191721 0 0 0 -3.816022,2.156893 l 10.563183,18.30582 A 62.553365,62.553365 0 0 0 2.6285036,101.92743 H 129.66316 A 62.23426,62.23426 0 0 0 97.309963,51.98738"
       id="path2"
       style="fill:#21252f;fill-opacity:1;stroke-width:0.553047" />
  </g>
</svg>
