<?xml version="1.0" encoding="UTF-8" standalone="no"?>
<!-- Created with Inkscape (http://www.inkscape.org/) -->

<svg
   width="500"
   height="500"
   viewBox="0 0 132.29166 132.29167"
   version="1.1"
   id="svg7337"
   inkscape:version="1.2.2 (732a01da63, 2022-12-09)"
   sodipodi:docname="apple-logo-dark-theme.svg"
   xmlns:inkscape="http://www.inkscape.org/namespaces/inkscape"
   xmlns:sodipodi="http://sodipodi.sourceforge.net/DTD/sodipodi-0.dtd"
   xmlns="http://www.w3.org/2000/svg"
   xmlns:svg="http://www.w3.org/2000/svg">
  <sodipodi:namedview
     id="namedview7339"
     pagecolor="#212529"
     bordercolor="#000000"
     borderopacity="0.25"
     inkscape:showpageshadow="2"
     inkscape:pageopacity="0"
     inkscape:pagecheckerboard="0"
     inkscape:deskcolor="#d1d1d1"
     inkscape:document-units="mm"
     showgrid="false"
     inkscape:zoom="0.914906"
     inkscape:cx="396.76207"
     inkscape:cy="560.71334"
     inkscape:window-width="3840"
     inkscape:window-height="2054"
     inkscape:window-x="1609"
     inkscape:window-y="-11"
     inkscape:window-maximized="1"
     inkscape:current-layer="layer1" />
  <defs
     id="defs7334" />
  <g
     inkscape:label="Layer 1"
     inkscape:groupmode="layer"
     id="layer1">
    <path
       d="m 115.19701,45.671911 c -0.74662,0.57927 -13.9282,8.006778 -13.9282,24.522363 0,19.102999 16.77305,25.861117 17.27508,26.028463 -0.0771,0.411928 -2.66465,9.255423 -8.8435,18.266263 -5.50948,7.92955 -11.263548,15.84621 -20.016946,15.84621 -8.753389,0 -11.006118,-5.08468 -21.111109,-5.08468 -9.847565,0 -13.348913,5.25203 -21.355692,5.25203 -8.006778,0 -13.59351,-7.3374 -20.016946,-16.34824 -7.44041,-10.58131 -13.451918,-27.019663 -13.451918,-42.621296 0,-25.02439 16.271001,-38.296075 32.284558,-38.296075 8.50882,0 15.601674,5.586723 20.94379,5.586723 5.084691,0 13.014227,-5.921409 22.694447,-5.921409 3.668698,0 16.850266,0.334708 25.526436,12.769648 z M 85.075059,22.308083 c 4.00338,-4.750005 6.835374,-11.340791 6.835374,-17.9315771 0,-0.9139559 -0.07713,-1.8407864 -0.244597,-2.5873969 -6.51354,0.2445967 -14.262847,4.3380757 -18.935636,9.757453 -3.668694,4.170734 -7.092845,10.761521 -7.092845,17.442415 0,1.004068 0.167557,2.008131 0.244372,2.329948 0.411929,0.07727 1.081319,0.167332 1.750692,0.167332 5.844176,0 13.194443,-3.913282 17.442424,-9.178188 z"
       id="path1-0"
       style="fill:#ffffff;fill-opacity:1;stroke-width:0.128727" />
  </g>
</svg>
