<?xml version="1.0" encoding="UTF-8" standalone="no"?>
<svg
   viewBox="0 0 500 500"
   version="1.1"
   id="svg1"
   sodipodi:docname="discord-logo-dark-theme.svg"
   width="500"
   height="500"
   inkscape:version="1.3 (0e150ed6c4, 2023-07-21)"
   inkscape:export-filename="discord-logo-light-theme.png"
   inkscape:export-xdpi="96"
   inkscape:export-ydpi="96"
   xmlns:inkscape="http://www.inkscape.org/namespaces/inkscape"
   xmlns:sodipodi="http://sodipodi.sourceforge.net/DTD/sodipodi-0.dtd"
   xmlns="http://www.w3.org/2000/svg"
   xmlns:svg="http://www.w3.org/2000/svg">
  <defs
     id="defs1" />
  <sodipodi:namedview
     id="namedview1"
     pagecolor="#212529"
     bordercolor="#000000"
     borderopacity="0.25"
     inkscape:showpageshadow="2"
     inkscape:pageopacity="0.0"
     inkscape:pagecheckerboard="0"
     inkscape:deskcolor="#d1d1d1"
     inkscape:zoom="0.75308046"
     inkscape:cx="-3.9836381"
     inkscape:cy="113.53369"
     inkscape:window-width="1920"
     inkscape:window-height="1017"
     inkscape:window-x="-8"
     inkscape:window-y="356"
     inkscape:window-maximized="1"
     inkscape:current-layer="svg1" />
  <path
     d="m 418.57293,96.782355 a 401.6663,401.6663 0 0 0 -100.19692,-30.826886 275.26461,275.26461 0 0 0 -12.83499,26.090165 373.13138,373.13138 0 0 0 -111.19835,0 A 276.44879,276.44879 0 0 0 181.50769,65.955469 404.49305,404.49305 0 0 0 81.23436,96.858754 C 17.823418,190.67639 0.63370443,282.16386 9.2285611,372.35256 v 0 a 403.88186,403.88186 0 0 0 122.8873489,61.69197 296.80905,296.80905 0 0 0 26.31936,-42.43949 261.36004,261.36004 0 0 1 -41.44631,-19.78727 c 3.47615,-2.52116 6.87589,-5.11872 10.16103,-7.63987 a 288.67259,288.67259 0 0 0 245.69831,0 c 3.32334,2.71215 6.72309,5.30971 10.16103,7.63987 a 262.35322,262.35322 0 0 1 -41.52271,19.82547 294.13509,294.13509 0 0 0 26.31936,42.40129 402.0483,402.0483 0 0 0 122.96375,-61.65377 v 0 C 500.85436,267.8009 473.54182,177.15381 418.57293,96.782355 Z M 169.32209,316.88708 c -23.951,0 -43.73827,-21.73543 -43.73827,-48.47499 0,-26.73955 19.09968,-48.66599 43.66187,-48.66599 24.56219,0 44.19667,21.92644 43.77647,48.66599 -0.42019,26.73956 -19.29068,48.47499 -43.70007,48.47499 z m 161.35411,0 c -23.9892,0 -43.70007,-21.73543 -43.70007,-48.47499 0,-26.73955 19.09968,-48.66599 43.70007,-48.66599 24.60039,0 44.08207,21.92644 43.66187,48.66599 -0.42019,26.73956 -19.25248,48.47499 -43.66187,48.47499 z"
     id="path1"
     style="stroke-width:3.81994;fill:#ffffff;fill-opacity:1" />
</svg>
