<?xml version="1.0" encoding="UTF-8" standalone="no"?>
<svg
   width="500"
   height="500"
   version="1.1"
   id="svg1"
   sodipodi:docname="github-mark-light-theme.svg"
   inkscape:version="1.3 (0e150ed6c4, 2023-07-21)"
   inkscape:export-filename="github-mark-dark-theme.png"
   inkscape:export-xdpi="96"
   inkscape:export-ydpi="96"
   xmlns:inkscape="http://www.inkscape.org/namespaces/inkscape"
   xmlns:sodipodi="http://sodipodi.sourceforge.net/DTD/sodipodi-0.dtd"
   xmlns="http://www.w3.org/2000/svg"
   xmlns:svg="http://www.w3.org/2000/svg">
  <defs
     id="defs1" />
  <sodipodi:namedview
     id="namedview1"
     pagecolor="#ffffff"
     bordercolor="#000000"
     borderopacity="0.25"
     inkscape:showpageshadow="2"
     inkscape:pageopacity="0.0"
     inkscape:pagecheckerboard="0"
     inkscape:deskcolor="#d1d1d1"
     inkscape:zoom="1.511809"
     inkscape:cx="257.9691"
     inkscape:cy="251.02377"
     inkscape:window-width="1920"
     inkscape:window-height="1017"
     inkscape:window-x="-8"
     inkscape:window-y="356"
     inkscape:window-maximized="1"
     inkscape:current-layer="svg1" />
  <path
     fill-rule="evenodd"
     clip-rule="evenodd"
     d="M 250.20686,0 C 111.84893,0 0,114.58285 0,256.33747 0,369.6495 71.665465,465.56576 171.08446,499.51354 c 12.42994,2.55207 16.98297,-5.51561 16.98297,-12.30204 0,-5.94268 -0.40972,-26.31239 -0.40972,-47.53626 -69.60149,15.28119 -84.0954,-30.55716 -84.0954,-30.55716 -11.185408,-29.70821 -27.758655,-37.34359 -27.758655,-37.34359 -22.780532,-15.70306 1.659374,-15.70306 1.659374,-15.70306 25.269591,1.69791 38.529211,26.31239 38.529211,26.31239 22.36569,39.0415 58.40585,28.0103 72.90488,21.21866 2.06909,-16.55202 8.70146,-28.0103 15.74356,-34.37486 -55.51219,-5.94268 -113.91803,-28.0103 -113.91803,-126.47343 0,-28.0103 9.93575,-50.92687 25.67931,-68.74971 -2.48393,-6.36456 -11.1854,-32.68215 2.48906,-67.90597 0,0 21.12628,-6.791634 68.76157,26.31239 a 240.55791,244.63439 0 0 1 62.55427,-8.48954 c 21.12628,0 42.66229,2.97394 62.54916,8.48954 47.6404,-33.104024 68.76668,-26.31239 68.76668,-26.31239 13.67447,35.22382 4.96788,61.54141 2.48394,67.90597 16.1584,17.82284 25.68443,40.73941 25.68443,68.74971 0,98.46313 -58.40584,120.10367 -114.33286,126.47343 9.11631,8.06247 16.98296,23.33845 16.98296,47.53105 0,34.37486 -0.40972,61.96329 -0.40972,70.44763 0,6.79163 4.55816,14.85931 16.98297,12.31244 C 428.33342,465.56055 499.99888,369.6495 499.99888,256.33747 500.4086,114.58285 388.14995,0 250.20686,0 Z"
     fill="#ffffff"
     id="path1"
     style="stroke-width:5.16474;fill:#212529;fill-opacity:1" />
</svg>
