<?xml version="1.0" encoding="UTF-8" standalone="no"?>
<!-- Created with Inkscape (http://www.inkscape.org/) -->

<svg
   width="500"
   height="500"
   viewBox="0 0 132.29166 132.29167"
   version="1.1"
   id="svg7337"
   inkscape:version="1.2.2 (732a01da63, 2022-12-09)"
   sodipodi:docname="ios-logo-light-theme.svg"
   inkscape:export-filename="linux-logo-light-theme.png"
   inkscape:export-xdpi="96"
   inkscape:export-ydpi="96"
   xmlns:inkscape="http://www.inkscape.org/namespaces/inkscape"
   xmlns:sodipodi="http://sodipodi.sourceforge.net/DTD/sodipodi-0.dtd"
   xmlns="http://www.w3.org/2000/svg"
   xmlns:svg="http://www.w3.org/2000/svg">
  <sodipodi:namedview
     id="namedview7339"
     pagecolor="#ffffff"
     bordercolor="#000000"
     borderopacity="0.25"
     inkscape:showpageshadow="2"
     inkscape:pageopacity="0"
     inkscape:pagecheckerboard="0"
     inkscape:deskcolor="#d1d1d1"
     inkscape:document-units="mm"
     showgrid="false"
     inkscape:zoom="0.914906"
     inkscape:cx="396.76207"
     inkscape:cy="560.71334"
     inkscape:window-width="3840"
     inkscape:window-height="2054"
     inkscape:window-x="1609"
     inkscape:window-y="-11"
     inkscape:window-maximized="1"
     inkscape:current-layer="layer1" />
  <defs
     id="defs7334" />
  <g
     inkscape:label="Layer 1"
     inkscape:groupmode="layer"
     id="layer1">
    <g
       id="g2"
       transform="matrix(1.7294979,0,0,1.7294979,-69.031403,-357.04833)"
       style="fill:#212529;fill-opacity:1">
      <path
         d="m 45.006743,264.63472 h -2.227595 v -29.76716 h 2.227595 z M 43.86124,227.57063 c -0.939404,0 -1.716253,-0.74517 -1.716253,-1.68457 0,-0.96713 0.772895,-1.71625 1.716253,-1.71625 0.967131,0 1.736072,0.74516 1.736072,1.71625 0,0.9394 -0.768941,1.68457 -1.736072,1.68457 z"
         fill="url(#c)"
         id="path11"
         style="fill:#212529;fill-opacity:1;fill-rule:evenodd;stroke:none;stroke-width:0.488154;stroke-opacity:1" />
      <path
         d="m 66.643206,265.21563 c -10.892187,0 -17.77321,-7.93154 -17.77321,-20.53958 0,-12.54508 6.912753,-20.50785 17.77321,-20.50785 10.860457,0 17.769304,7.96326 17.769304,20.50785 0,12.60853 -6.881023,20.53958 -17.769304,20.53958 z m 0,-38.99865 c -9.480933,0 -15.533558,7.15829 -15.533558,18.45858 0,11.30858 6.08045,18.4947 15.533558,18.4947 9.480933,0 15.533558,-7.18612 15.533558,-18.4947 0,-11.30419 -6.052625,-18.45858 -15.533558,-18.45858 z"
         fill="url(#b)"
         id="path12-0"
         style="fill:#212529;fill-opacity:1;fill-rule:evenodd;stroke:none;stroke-width:0.488154;stroke-opacity:1" />
      <path
         d="m 100.2746,265.21563 c -8.177076,0 -14.039321,-4.6177 -14.372243,-11.22121 h 2.184003 c 0.33295,5.41461 5.418512,9.20366 12.3547,9.20366 6.76972,0 11.49457,-3.84475 11.49457,-9.0372 0,-4.17772 -2.81817,-6.57983 -9.50486,-8.26445 l -4.724695,-1.16137 c -7.3765,-1.88276 -10.725727,-4.86738 -10.725727,-9.86559 0,-6.21909 5.806596,-10.69791 13.076192,-10.69791 7.51513,0 13.12744,4.42346 13.37738,10.282 h -2.184 c -0.30521,-4.7802 -4.9743,-8.26445 -11.24903,-8.26445 -6.000883,0 -10.781378,3.59506 -10.781378,8.62471 0,3.98348 2.92917,6.27473 9.338392,7.87588 l 4.451186,1.13359 c 7.70942,1.90653 11.16555,4.86739 11.16555,10.17069 0,6.60327 -5.55324,11.22121 -13.90068,11.22121 z"
         fill="url(#a)"
         id="path13"
         style="fill:#212529;fill-opacity:1;fill-rule:evenodd;stroke:none;stroke-width:0.488154;stroke-opacity:1" />
    </g>
  </g>
</svg>
