<?xml version="1.0" encoding="UTF-8" standalone="no"?>
<!-- Created with Inkscape (http://www.inkscape.org/) -->

<svg
   width="500"
   height="500"
   viewBox="0 0 132.29166 132.29167"
   version="1.1"
   id="svg7337"
   inkscape:version="1.2.2 (732a01da63, 2022-12-09)"
   sodipodi:docname="linux-logo-dark-theme.svg"
   inkscape:export-filename="windows-logo-dark-theme.png"
   inkscape:export-xdpi="96"
   inkscape:export-ydpi="96"
   xmlns:inkscape="http://www.inkscape.org/namespaces/inkscape"
   xmlns:sodipodi="http://sodipodi.sourceforge.net/DTD/sodipodi-0.dtd"
   xmlns="http://www.w3.org/2000/svg"
   xmlns:svg="http://www.w3.org/2000/svg">
  <sodipodi:namedview
     id="namedview7339"
     pagecolor="#212529"
     bordercolor="#000000"
     borderopacity="0.25"
     inkscape:showpageshadow="2"
     inkscape:pageopacity="0"
     inkscape:pagecheckerboard="0"
     inkscape:deskcolor="#d1d1d1"
     inkscape:document-units="mm"
     showgrid="false"
     inkscape:zoom="0.914906"
     inkscape:cx="396.76207"
     inkscape:cy="560.71334"
     inkscape:window-width="3840"
     inkscape:window-height="2054"
     inkscape:window-x="1609"
     inkscape:window-y="-11"
     inkscape:window-maximized="1"
     inkscape:current-layer="layer1" />
  <defs
     id="defs7334" />
  <g
     inkscape:label="Layer 1"
     inkscape:groupmode="layer"
     id="layer1">
    <path
       d="m 64.225731,33.703561 c 0,0.420146 -0.420146,0.420146 -0.420146,0.420146 H 63.38544 c -0.420146,0 -0.420146,-0.420146 -0.840336,-0.840291 0,0 -0.420146,-0.420146 -0.420146,-0.840336 0,-0.420146 0,-0.420146 0.420146,-0.420146 l 0.840336,0.420146 c 0.420145,0.420145 0.840291,0.840336 0.840291,1.260481 m -7.562713,-4.201502 c 0,-2.100729 -0.840291,-3.361166 -2.100729,-3.361166 0,0 0,0.420146 -0.420145,0.420146 v 0.840291 h 1.260437 c 0,0.840292 0.420146,1.260438 0.420146,2.100729 h 0.840291 M 71.368254,27.40133 c 0.840292,0 1.260437,0.840292 1.680583,2.100729 h 0.840292 c -0.420146,-0.420146 -0.420146,-0.840291 -0.420146,-1.260437 0,-0.420146 0,-0.840292 -0.420146,-1.260438 -0.420146,-0.420145 -0.840291,-0.840291 -1.260437,-0.840291 0,0 -0.420146,0.420146 -0.840292,0.420146 0,0.420145 0.420146,0.420145 0.420146,0.840291 m -12.604462,6.722377 c -0.420146,0 -0.420146,0 -0.420146,-0.420146 0,-0.420145 0,-0.840291 0.420146,-1.260481 0.840291,0 1.260437,-0.420146 1.260437,-0.420146 0.420146,0 0.420146,0.420146 0.420146,0.420146 0,0.420145 -0.420146,0.840336 -1.260438,1.680627 h -0.420145 m -4.621648,-0.420146 c -1.680584,-0.840291 -2.100729,-2.100773 -2.100729,-4.201502 0,-1.260437 0,-2.100729 0.840291,-2.94102 0.420146,-0.840292 1.260438,-1.260482 2.100729,-1.260482 0.840292,0 1.260482,0.420146 2.100729,1.260482 0.420146,1.260437 0.840336,2.520874 0.840336,3.781312 v 0.840291 h 0.420146 v -0.420146 c 0.420146,0 0.420146,-0.840291 0.420146,-2.520874 0,-1.260438 0,-2.520875 -0.840292,-3.781357 -0.840336,-1.260437 -1.680583,-2.100729 -3.361211,-2.100729 -1.260437,0 -2.520874,0.840292 -2.94102,2.100729 -0.840292,1.680628 -1.008394,2.941065 -1.008394,5.041794 0,1.680583 0.588248,3.361211 2.268831,5.041794 0.420146,-0.420146 0.840292,-0.420146 1.260438,-0.840292 m 52.518576,59.240955 c 0.42015,0 0.42015,-0.16788 0.42015,-0.546189 0,-0.924365 -0.42015,-2.016744 -1.68059,-3.235167 -1.26043,-1.260437 -3.36121,-2.058714 -5.882081,-2.394831 -0.420146,-0.03997 -0.840292,-0.03997 -0.840292,-0.03997 -0.420145,-0.08394 -0.420145,-0.08394 -0.840291,-0.08394 -0.420146,-0.03997 -1.260482,-0.126132 -1.680628,-0.210073 1.260438,-3.907356 1.680628,-7.352595 1.680628,-10.377645 0,-4.201502 -0.840336,-7.142523 -2.520919,-9.663442 -1.680583,-2.520875 -3.361166,-3.781312 -5.46194,-4.201458 -0.420146,0.420146 -0.420146,0.420146 -0.420146,0.840292 2.100729,0.840291 4.201503,2.520875 5.46194,5.041794 1.260437,2.94102 1.680583,5.461939 1.680583,8.40296 0,2.352816 -0.420146,5.840071 -2.100729,10.29366 -1.680583,0.672189 -3.361166,2.226773 -4.621648,4.663618 0,0.377954 0,0.588205 0.420146,0.588205 0,0 0.420146,-0.377954 0.840336,-1.09238 0.840292,-0.714247 1.260437,-1.428495 2.100729,-2.142743 1.260437,-0.714248 2.100729,-1.092379 3.361166,-1.092379 2.100773,0 4.201506,0.294013 5.461936,0.882306 1.68059,0.54619 2.52088,1.134394 2.94107,1.806627 0.42014,0.630219 0.84029,1.218423 1.26044,1.764612 0,0.54619 0.42014,0.798277 0.42014,0.798277 M 68.007043,32.025066 c -0.420145,-0.420146 -0.420145,-1.260438 -0.420145,-2.100729 0,-1.680583 0,-2.520875 0.840291,-3.781312 0.840292,-0.840336 1.680628,-1.260482 2.520919,-1.260482 1.260438,0 2.100729,0.840336 2.941021,1.680627 0.420145,1.260438 0.840291,2.100729 0.840291,3.361167 0,2.100729 -0.840291,3.36121 -2.520874,3.781356 0,0 0.420145,0.420146 0.840291,0.420146 0.840292,0 1.260437,0.420146 2.100729,0.840292 0.420146,-2.52092 0.840292,-4.201503 0.840292,-6.302232 0,-2.520874 -0.420146,-4.201502 -1.260438,-5.461939 -1.260437,-1.260438 -2.520874,-1.680583 -4.201502,-1.680583 -1.260437,0 -2.520875,0.420145 -3.781312,1.260437 -0.840292,1.260437 -1.260437,2.100729 -1.260437,3.361211 0,2.100729 0.420145,3.781312 1.260437,5.461895 0.420146,0 0.840292,0.420146 1.260437,0.420146 m 5.041794,6.722377 c -5.461939,3.781356 -9.663397,5.461939 -13.024608,5.461939 -2.941065,0 -5.882085,-1.260437 -8.40296,-3.361166 0.420146,0.840291 0.840291,1.680583 1.260437,2.100729 l 2.520875,2.520874 c 1.680583,1.680628 3.781356,2.52092 5.882085,2.52092 2.941065,0 6.302232,-1.680584 10.503734,-4.621648 l 3.781312,-2.520875 c 0.840291,-0.840292 1.680583,-1.680628 1.680583,-2.941065 0,-0.420146 0,-0.840292 -0.420146,-0.840292 -0.420146,-0.840291 -2.520875,-2.100728 -6.722332,-3.361166 -3.781357,-1.680627 -6.722377,-2.520919 -8.403005,-2.520919 -1.260437,0 -3.361166,0.840292 -6.302231,2.520919 -2.520875,1.680583 -4.201458,3.361166 -4.201458,5.04175 0,0 0.420146,0.420145 0.840292,1.260481 2.520874,2.100729 5.041749,3.361167 7.562668,3.361167 3.361166,0 7.562669,-1.680584 13.024608,-5.882086 v 0.840292 c 0.420146,0 0.420146,0.420146 0.420146,0.420146 m 9.663398,84.870027 c 1.680583,3.15949 4.621648,4.74769 7.982814,4.74769 0.840291,0 1.680627,-0.12613 2.520919,-0.37795 0.840291,-0.16788 1.680583,-0.46216 2.100729,-0.79833 0.420146,-0.29401 0.840291,-0.5882 1.260437,-0.92432 0.840292,-0.29401 0.840292,-0.50417 1.260482,-0.71424 l 7.142524,-6.17619 c 1.68058,-1.34025 3.36116,-2.51248 5.46189,-3.52923 1.68063,-1.00835 3.36121,-1.68062 4.20151,-2.05875 1.26043,-0.33621 2.10072,-0.8403 2.94102,-1.51253 0.42014,-0.63022 0.84033,-1.42849 0.84033,-2.43684 0,-1.21843 -0.84033,-2.14275 -1.68063,-2.81503 -0.84029,-0.67223 -1.68058,-1.13439 -2.52087,-1.42849 -0.84029,-0.29401 -1.68058,-0.96634 -2.94102,-2.10073 -0.84034,-1.09238 -1.68063,-2.6049 -2.10077,-4.579634 l -0.42015,-2.436846 c -0.42015,-1.134393 -0.42015,-1.974685 -0.84029,-2.436845 0,-0.126133 0,-0.167881 -0.42015,-0.167881 -0.42014,0 -1.26043,0.377954 -1.68058,1.092379 -0.84029,0.714248 -1.68058,1.512525 -2.52087,2.352817 -0.42015,0.840291 -1.68063,1.596554 -2.52092,2.310846 -1.260441,0.714244 -2.520878,1.092374 -3.361214,1.092374 -3.361167,0 -5.04175,-0.924316 -6.302187,-2.730987 -0.840336,-1.344467 -1.260482,-2.899006 -1.680628,-4.663618 -0.840291,-0.714248 -1.260437,-1.092379 -2.100728,-1.092379 -2.100729,0 -2.941065,2.184758 -2.941065,6.596333 v 13.066581 c 0,0.37795 -0.420146,1.21846 -0.420146,2.52092 -0.420146,1.30245 -0.420146,2.78135 -0.420146,4.45354 l -0.840336,4.66366 v 0.0715 m -60.921538,-2.2226 c 3.9074,0.57137 8.40296,1.79401 13.486768,3.65949 5.083809,1.84864 8.192888,2.81502 9.327326,2.81502 2.94102,0 5.377866,-1.3025 7.39461,-3.8192 0.420146,-0.81506 0.420146,-1.773 0.420146,-2.87378 0,-3.97042 -2.394831,-8.9912 -7.184538,-15.08336 l -2.857036,-3.82333 c -0.588204,-0.79828 -1.302451,-2.0167 -2.226772,-3.655312 -0.882306,-1.638569 -1.680583,-2.899006 -2.310802,-3.781312 -0.546189,-0.966335 -1.42854,-1.932671 -2.562934,-2.89905 -1.092379,-0.966336 -2.352816,-1.596554 -3.739297,-1.932671 -1.764657,0.336205 -2.98308,0.924321 -3.571284,1.722598 -0.588204,0.798321 -0.92432,1.680627 -1.00835,2.604948 -0.126132,0.882306 -0.377953,1.47051 -0.798277,1.764612 -0.420145,0.252265 -1.134393,0.462161 -2.100728,0.672234 -0.210073,0 -0.588205,0 -1.134394,0.03997 h -1.134438 c -2.226773,0 -3.739298,0.252265 -4.537575,0.672233 -1.050408,1.218423 -1.596598,2.60491 -1.596598,4.07542 0,0.67223 0.167881,1.80667 0.504219,3.40322 0.336206,1.55454 0.504175,2.81498 0.504175,3.69728 0,1.7226 -0.504175,3.44524 -1.554583,5.16784 -1.050365,1.80663 -1.596554,3.15114 -1.596554,4.10904 0.420145,1.63017 3.193107,2.77718 8.276916,3.44941 M 35.781595,83.176527 c 0,-2.899051 0.756307,-6.092159 2.310846,-9.873515 1.512525,-3.781312 3.02505,-6.302231 4.49556,-7.982814 -0.08394,-0.420146 -0.294013,-0.420146 -0.630218,-0.420146 l -0.420146,-0.420146 c -1.218423,1.260437 -2.688933,4.201502 -4.453545,8.40296 -1.764657,3.781357 -2.688978,7.268611 -2.688978,9.8315 0,1.890656 0.462161,3.529225 1.302452,4.957765 0.924365,1.386481 3.151138,3.403181 6.680362,5.96607 l 4.45359,2.89905 c 4.747692,4.117469 7.268567,6.974469 7.268567,8.655049 0,0.88231 -0.420146,1.76461 -1.680583,2.73099 -0.840292,1.00835 -1.974686,1.51253 -2.941065,1.51253 -0.08394,0 -0.126133,0.0839 -0.126133,0.29401 0,0.04 0.420146,0.88231 1.302496,2.52087 1.764613,2.39483 5.545925,3.57129 10.587719,3.57129 9.243296,0 16.385774,-3.78136 21.847713,-11.34403 0,-2.10073 0,-3.40318 -0.420145,-3.94937 v -1.554582 c 0,-2.730947 0.420145,-4.789662 1.260437,-6.134173 0.840292,-1.344466 1.680583,-1.974685 2.941021,-1.974685 0.840291,0 1.680583,0.294013 2.520874,0.924321 0.420146,-3.235123 0.420146,-6.050144 0.420146,-8.571019 0,-3.823371 0,-6.974464 -0.840292,-9.915529 -0.420145,-2.520875 -1.260437,-4.621603 -2.100728,-6.302231 L 84.35067,63.21938 C 83.510378,61.958943 83.090188,60.698505 82.249896,59.438023 81.829751,57.75744 81.409605,56.497003 81.409605,54.396274 80.149168,52.295501 79.308876,50.194772 78.048439,48.094043 77.208103,45.99327 76.367811,43.892541 75.52752,42.211958 l -3.781312,2.94102 c -4.201503,2.941065 -7.562669,4.201502 -10.503734,4.201502 -2.520875,0 -4.621603,-0.420145 -5.882085,-2.100773 l -2.520875,-2.100729 c 0,1.260437 -0.420146,2.941065 -1.260437,4.621648 l -2.646963,5.041794 c -1.176408,2.94102 -1.806627,4.621603 -1.932671,5.882085 -0.16788,0.840292 -0.294013,1.680583 -0.377953,1.680583 l -3.151138,6.302232 c -3.403181,6.302231 -5.125779,12.142257 -5.125779,16.973978 0,0.966335 0.08394,1.97473 0.252265,2.983079 -1.890656,-1.302496 -2.815021,-3.109123 -2.815021,-5.461939 m 30.08266,39.746062 c -5.461939,0 -9.663441,0.73943 -12.604462,2.20576 v -0.12613 c -2.100773,2.52087 -4.45359,3.82332 -7.730727,3.82332 -2.058758,0 -5.293881,-0.79827 -9.663397,-2.39483 -4.411575,-1.51252 -8.318975,-2.67214 -11.722156,-3.4368 -0.336206,-0.0968 -1.092379,-0.23938 -2.310846,-0.43258 -1.176409,-0.1892 -2.268788,-0.38239 -3.235123,-0.57559 -0.882306,-0.1892 -1.8907,-0.47477 -2.983035,-0.8613 -1.050409,-0.33176 -1.8907,-0.7647 -2.520919,-1.28988 -0.57981,-0.52936 -0.865518,-1.126 -0.865518,-1.79402 0,-0.67223 0.143009,-1.3907 0.428584,-2.15535 0.269142,-0.46216 0.563022,-0.92432 0.857124,-1.34451 0.294013,-0.46216 0.54619,-0.88231 0.714248,-1.30245 0.252265,-0.37796 0.420146,-0.75627 0.588204,-1.17641 0.167881,-0.37796 0.336205,-0.75627 0.420146,-1.21843 0.08394,-0.42014 0.16788,-0.84029 0.16788,-1.26043 0,-0.42015 -0.16788,-1.68063 -0.504175,-3.9074 -0.336205,-2.18476 -0.504174,-3.57124 -0.504174,-4.15945 0,-1.848683 0.420145,-3.319193 1.344466,-4.369557 0.924365,-1.050365 1.806671,-1.596554 2.730992,-1.596554 h 4.831721 c 0.377953,0 0.966335,-0.210073 1.848641,-0.714248 0.294014,-0.672278 0.54619,-1.218467 0.714248,-1.722642 0.210073,-0.504175 0.294013,-0.882306 0.377954,-1.050365 0.08394,-0.252265 0.16788,-0.504175 0.252265,-0.714247 0.167881,-0.294014 0.377953,-0.630219 0.672233,-0.966336 -0.336205,-0.420146 -0.504175,-0.966335 -0.504175,-1.638568 0,-0.462161 0,-0.882306 0.08394,-1.134394 0,-1.512569 0.714247,-3.655313 2.226772,-6.470334 l 1.47051,-2.646918 c 1.218423,-2.268787 2.142744,-3.949371 2.814977,-5.629998 0.714292,-1.680583 1.470555,-4.201458 2.310846,-7.562669 0.672234,-2.94102 2.268788,-5.882085 4.789707,-8.823105 l 3.151093,-3.781357 c 2.184758,-2.520875 3.613298,-4.621604 4.411575,-6.302231 0.798277,-1.680583 1.218423,-3.781312 1.218423,-5.461895 0,-0.840336 -0.210073,-3.361211 -0.672233,-7.562713 -0.420146,-4.201458 -0.630219,-8.40296 -0.630219,-12.184272 0,-2.941065 0.252265,-5.041794 0.798277,-7.142523 0.54619,-2.100773 1.512525,-4.2015022 2.941021,-5.8820854 1.260481,-1.6806275 2.941064,-3.3612106 5.461939,-4.2015022 2.520875,-0.8402472 5.46194,-1.2603929 8.823106,-1.2603929 1.260437,0 2.520919,0 3.781356,0.4201457 1.260438,0 2.941021,0.4201458 5.04175,1.2604374 1.680627,0.8402916 3.36121,1.6805831 4.621648,2.9410205 1.680583,1.2604373 2.941065,3.3612109 4.201502,5.4619399 0.840292,2.520874 1.680583,5.041793 2.100729,8.40296 0.420146,2.100773 0.420146,4.201502 0.840292,7.142522 0,2.52092 0.420145,4.201503 0.420145,5.46194 0.420146,1.260437 0.420146,2.941065 0.840292,5.041794 0.420146,1.680583 0.840336,3.361166 1.680627,4.621648 0.840292,1.680583 1.680584,3.361166 2.941021,5.041749 1.260437,2.100774 2.941065,4.201502 4.621648,6.722377 3.78136,4.201502 6.72238,8.82315 8.40296,13.444754 2.10073,4.201502 3.36121,9.663442 3.36121,15.503513 0,2.899006 -0.42014,5.714027 -1.26048,8.444974 0.84034,0 1.26048,0.336206 1.68058,0.924321 0.42015,0.588204 0.84034,1.848642 1.26048,3.823371 l 0.42015,3.10908 c 0.42015,0.92432 0.84029,1.80663 2.10073,2.56293 0.84029,0.75626 1.68058,1.38648 2.94102,1.89066 0.84034,0.42014 2.10077,1.00835 2.94106,1.76461 0.8403,0.84029 1.26044,1.7226 1.26044,2.64696 0,1.4285 -0.42014,2.47886 -1.26044,3.23513 -0.84029,0.84029 -1.68058,1.42849 -2.94106,1.80662 -0.84029,0.42015 -2.52087,1.26044 -5.04175,2.44529 -2.10073,1.2436 -4.2015,2.75195 -6.30223,4.53757 l -4.2015,3.57546 c -1.680587,1.63861 -3.36117,2.81502 -4.621607,3.52927 -1.260438,0.75626 -2.941065,1.13439 -4.621648,1.13439 l -2.941065,-0.3362 c -3.361167,-0.88231 -5.461895,-2.56289 -6.722377,-5.12583 -6.722377,-0.81506 -12.184272,-1.21842 -15.545483,-1.21842"
       id="path1-4"
       style="fill:#fcffff;fill-opacity:1;stroke-width:0.420149" />
  </g>
</svg>
