<svg width="566.93" height="119.31" version="1.1" viewBox="0 0 566.93 119.31" xmlns="http://www.w3.org/2000/svg">
 <defs>
  <clipPath id="clipPath20">
   <path d="M 0,583.94 H 810.71 V 0 H 0 Z"/>
  </clipPath>
 </defs>
 <g transform="matrix(1.3333 0 0 -1.3333 -257.01 448.95)">
  <g transform="translate(331.41 273.18)">
   <path d="m0 0v31.944l-13.21-31.944h-1.979l-13.15 31.944v-31.944h-4.83v38.814h6.924l12.048-29.21 12.1 29.21h6.927v-38.814z" fill="#fff"/>
  </g>
  <g clip-path="url(#clipPath20)">
   <g transform="translate(359.74 276.78)">
    <path d="m0 0c2.172 0 4.129 0.404 5.872 1.2 1.749 0.79 3.239 1.895 4.483 3.31 1.244 1.419 2.204 3.087 2.879 5.006 0.682 1.927 1.017 4.011 1.017 6.259 0 2.247-0.335 4.344-1.017 6.289-0.675 1.932-1.635 3.599-2.879 5.001-1.244 1.395-2.734 2.487-4.483 3.283-1.743 0.796-3.7 1.2-5.872 1.2-2.179 0-4.143-0.404-5.91-1.2-1.769-0.796-3.272-1.888-4.509-3.283-1.244-1.402-2.19-3.069-2.854-5.001-0.657-1.945-0.985-4.042-0.985-6.289 0-2.248 0.328-4.332 0.985-6.259 0.664-1.919 1.61-3.587 2.854-5.006 1.237-1.415 2.74-2.52 4.509-3.31 1.767-0.796 3.731-1.2 5.91-1.2m0-4.306c-2.873 0-5.493 0.504-7.861 1.516-2.362 1.011-4.389 2.412-6.081 4.217-1.686 1.806-2.994 3.928-3.927 6.379-0.929 2.436-1.396 5.095-1.396 7.969 0 2.867 0.467 5.531 1.396 7.968 0.933 2.45 2.241 4.572 3.927 6.378 1.692 1.805 3.719 3.207 6.081 4.217 2.368 1.011 4.988 1.516 7.861 1.516 2.866 0 5.487-0.505 7.854-1.516 2.362-1.01 4.389-2.412 6.082-4.217 1.685-1.806 2.992-3.928 3.926-6.378 0.929-2.437 1.396-5.101 1.396-7.968 0-2.874-0.467-5.533-1.396-7.969-0.934-2.451-2.241-4.573-3.926-6.379-1.693-1.805-3.72-3.206-6.082-4.217-2.367-1.012-4.988-1.516-7.854-1.516" fill="#fff"/>
   </g>
   <g transform="translate(410.79 273.18)">
    <path d="m0 0-22.637 30.959v-30.959h-4.83v38.814h4.945l22.344-30.322v30.322h4.83v-38.814z" fill="#fff"/>
   </g>
   <g transform="translate(439.14 276.78)">
    <path d="m0 0c2.17 0 4.129 0.404 5.871 1.2 1.748 0.79 3.24 1.895 4.483 3.31 1.244 1.419 2.205 3.087 2.88 5.006 0.682 1.927 1.016 4.011 1.016 6.259 0 2.247-0.334 4.344-1.016 6.289-0.675 1.932-1.636 3.599-2.88 5.001-1.243 1.395-2.735 2.487-4.483 3.283-1.742 0.796-3.701 1.2-5.871 1.2-2.18 0-4.143-0.404-5.91-1.2-1.77-0.796-3.272-1.888-4.51-3.283-1.244-1.402-2.191-3.069-2.853-5.001-0.657-1.945-0.985-4.042-0.985-6.289 0-2.248 0.328-4.332 0.985-6.259 0.662-1.919 1.609-3.587 2.853-5.006 1.238-1.415 2.74-2.52 4.51-3.31 1.767-0.796 3.73-1.2 5.91-1.2m0-4.306c-2.873 0-5.494 0.504-7.861 1.516-2.362 1.011-4.389 2.412-6.082 4.217-1.686 1.806-2.993 3.928-3.926 6.379-0.93 2.436-1.397 5.095-1.397 7.969 0 2.867 0.467 5.531 1.397 7.968 0.933 2.45 2.24 4.572 3.926 6.378 1.693 1.805 3.72 3.207 6.082 4.217 2.367 1.011 4.988 1.516 7.861 1.516 2.865 0 5.486-0.505 7.854-1.516 2.361-1.01 4.388-2.412 6.082-4.217 1.685-1.806 2.992-3.928 3.925-6.378 0.928-2.437 1.397-5.101 1.397-7.968 0-2.874-0.469-5.533-1.397-7.969-0.933-2.451-2.24-4.573-3.925-6.379-1.694-1.805-3.721-3.206-6.082-4.217-2.368-1.012-4.989-1.516-7.854-1.516" fill="#fff"/>
   </g>
   <g transform="translate(482.6 272.42)">
    <path d="m0 0c-2.834 0-5.5 0.473-8 1.427-2.5 0.953-4.697 2.299-6.58 4.048-1.881 1.742-3.365 3.857-4.449 6.339-1.088 2.481-1.631 5.254-1.631 8.324 0 3.061 0.543 5.833 1.631 8.321 1.084 2.482 2.568 4.597 4.449 6.34 1.883 1.748 4.08 3.088 6.58 4.016 2.5 0.933 5.166 1.401 8 1.401 2.016 0 3.852-0.239 5.5-0.7 1.648-0.468 3.133-1.099 4.451-1.888 1.32-0.796 2.481-1.718 3.492-2.767 1.012-1.047 1.883-2.159 2.621-3.321l-6.871-3.725c-0.888 1.364-2.121 2.544-3.693 3.548-1.572 1.011-3.402 1.516-5.5 1.516-1.742 0-3.365-0.315-4.861-0.959-1.491-0.645-2.778-1.542-3.866-2.685-1.084-1.148-1.931-2.5-2.531-4.053-0.607-1.56-0.902-3.245-0.902-5.071 0-1.831 0.295-3.536 0.902-5.109 0.6-1.572 1.447-2.924 2.531-4.054 1.088-1.129 2.375-2.014 3.866-2.651 1.496-0.645 3.119-0.966 4.861-0.966 1.748 0 3.367 0.316 4.863 0.941 1.489 0.625 2.625 1.306 3.403 2.051v4.692h-10.241v7.275h18.5v-14.935c-1.976-2.222-4.343-4.002-7.097-5.341-2.754-1.338-5.899-2.014-9.428-2.014" fill="#fff"/>
   </g>
   <g transform="translate(519.91 303.73)">
    <path d="m0 0-6.055-16.708h12.104zm10.709-30.555-2.387 6.574h-16.644l-2.444-6.574h-9.427l15.015 38.815h10.356l14.957-38.815z" fill="#fff"/>
   </g>
   <g transform="translate(575.95 273.18)">
    <path d="m0 0v27.178l-10.943-27.178h-3.606l-10.941 27.178v-27.178h-8.266v38.814h11.567l9.416-23.451 9.414 23.451h11.617v-38.814z" fill="#fff"/>
   </g>
   <g transform="translate(590.49 273.18)">
    <path d="m0 0v38.814h27.467v-7.274h-19.201v-8.208h18.796v-7.273h-18.796v-8.785h19.201v-7.274z" fill="#fff"/>
   </g>
   <g transform="translate(282.23 298.08)">
    <path d="m0 0v12.218c0 14.56-11.846 26.412-26.406 26.412-7.11 0-13.575-2.829-18.33-7.413-4.754 4.584-11.22 7.413-18.329 7.413-14.561 0-26.407-11.852-26.407-26.412v-36.655c0-14.567 11.846-26.413 26.407-26.413h36.659c14.56 0 26.406 11.846 26.406 26.413v17.756h-52.817v-16.166h36.653v-1.59c0-5.652-4.597-10.248-10.242-10.248h-36.659c-5.646 0-10.243 4.596-10.243 10.248v36.655c0 5.651 4.597 10.248 10.243 10.248 5.651 0 10.248-4.597 10.248-10.248v-12.218h16.163v12.218c0 5.651 4.597 10.248 10.248 10.248 5.645 0 10.242-4.597 10.242-10.248v-12.218z" fill="#fff"/>
   </g>
  </g>
 </g>
</svg>
