<svg width="119.3" height="119.31" version="1.1" viewBox="0 0 119.3 119.31" xmlns="http://www.w3.org/2000/svg">
 <defs>
  <clipPath id="clipPath16">
   <path d="M 0,583.94 H 810.71 V 0 H 0 Z"/>
  </clipPath>
 </defs>
 <g transform="matrix(1.3333 0 0 -1.3333 -480.83 448.95)">
  <g clip-path="url(#clipPath16)">
   <g transform="translate(450.09 298.08)">
    <path d="m0 0v12.218c0 14.56-11.846 26.412-26.406 26.412-7.11 0-13.575-2.829-18.33-7.413-4.754 4.584-11.22 7.413-18.329 7.413-14.561 0-26.407-11.852-26.407-26.412v-36.655c0-14.567 11.846-26.413 26.407-26.413h36.659c14.56 0 26.406 11.846 26.406 26.413v17.756h-52.817v-16.166h36.653v-1.59c0-5.652-4.597-10.248-10.242-10.248h-36.659c-5.646 0-10.243 4.596-10.243 10.248v36.655c0 5.651 4.597 10.248 10.243 10.248 5.651 0 10.248-4.597 10.248-10.248v-12.218h16.163v12.218c0 5.651 4.597 10.248 10.248 10.248 5.645 0 10.242-4.597 10.242-10.248v-12.218z" fill="#fff"/>
   </g>
  </g>
 </g>
</svg>
