<?xml version="1.0" encoding="UTF-8" standalone="no"?>
<!-- Created with Inkscape (http://www.inkscape.org/) -->

<svg
   version="1.1"
   id="svg2"
   width="150.99319"
   height="147.56813"
   viewBox="0 0 150.9932 147.56813"
   sodipodi:docname="SquareLogo.svg"
   inkscape:version="1.3 (0e150ed6c4, 2023-07-21)"
   xmlns:inkscape="http://www.inkscape.org/namespaces/inkscape"
   xmlns:sodipodi="http://sodipodi.sourceforge.net/DTD/sodipodi-0.dtd"
   xmlns="http://www.w3.org/2000/svg"
   xmlns:svg="http://www.w3.org/2000/svg">
  <defs
     id="defs6">
    <clipPath
       clipPathUnits="userSpaceOnUse"
       id="clipPath20">
      <path
         d="M 0,583.94 H 810.71 V 0 H 0 Z"
         id="path18" />
    </clipPath>
  </defs>
  <sodipodi:namedview
     id="namedview4"
     pagecolor="#ffffff"
     bordercolor="#000000"
     borderopacity="0.25"
     inkscape:showpageshadow="2"
     inkscape:pageopacity="0.0"
     inkscape:pagecheckerboard="0"
     inkscape:deskcolor="#d1d1d1"
     inkscape:zoom="1.0398293"
     inkscape:cx="75.974009"
     inkscape:cy="73.569768"
     inkscape:window-width="1920"
     inkscape:window-height="1017"
     inkscape:window-x="-8"
     inkscape:window-y="-8"
     inkscape:window-maximized="1"
     inkscape:current-layer="g8" />
  <g
     id="g8"
     inkscape:groupmode="layer"
     inkscape:label="SquareLogo(2)"
     transform="matrix(1.3333333,0,0,-1.3333333,-464.97652,463.07772)">
    <g
       id="g10"
       transform="translate(360.4814,236.9006)">
      <path
         d="M 0,0 V 11.315 L -4.679,0 H -5.38 l -4.658,11.315 V 0 h -1.711 v 13.748 h 2.453 L -5.029,3.402 -0.743,13.748 H 1.711 V 0 Z"
         style="fill:#ffffff;fill-opacity:1;fill-rule:nonzero;stroke:none"
         id="path12" />
    </g>
    <g
       id="g14">
      <g
         id="g16"
         clip-path="url(#clipPath20)">
        <g
           id="g22"
           transform="translate(370.5145,238.1773)">
          <path
             d="m 0,0 c 0.769,0 1.462,0.143 2.08,0.425 0.619,0.28 1.147,0.671 1.588,1.172 0.44,0.503 0.78,1.094 1.02,1.774 0.241,0.682 0.36,1.421 0.36,2.217 0,0.796 -0.119,1.538 -0.36,2.227 C 4.448,8.5 4.108,9.09 3.668,9.586 3.227,10.081 2.699,10.467 2.08,10.749 1.462,11.031 0.769,11.175 0,11.175 c -0.772,0 -1.467,-0.144 -2.093,-0.426 C -2.72,10.467 -3.252,10.081 -3.69,9.586 -4.131,9.09 -4.466,8.5 -4.702,7.815 -4.934,7.126 -5.05,6.384 -5.05,5.588 -5.05,4.792 -4.934,4.053 -4.702,3.371 -4.466,2.691 -4.131,2.1 -3.69,1.597 -3.252,1.096 -2.72,0.705 -2.093,0.425 -1.467,0.143 -0.772,0 0,0 m 0,-1.525 c -1.018,0 -1.946,0.178 -2.785,0.537 -0.836,0.358 -1.554,0.854 -2.154,1.493 -0.597,0.64 -1.06,1.392 -1.39,2.26 -0.329,0.863 -0.495,1.805 -0.495,2.823 0,1.015 0.166,1.959 0.495,2.822 0.33,0.868 0.793,1.619 1.39,2.259 0.6,0.639 1.318,1.136 2.154,1.494 C -1.946,12.521 -1.018,12.7 0,12.7 1.015,12.7 1.944,12.521 2.782,12.163 3.619,11.805 4.337,11.308 4.936,10.669 5.533,10.029 5.996,9.278 6.327,8.41 6.656,7.547 6.821,6.603 6.821,5.588 6.821,4.57 6.656,3.628 6.327,2.765 5.996,1.897 5.533,1.145 4.936,0.505 4.337,-0.134 3.619,-0.63 2.782,-0.988 1.944,-1.347 1.015,-1.525 0,-1.525"
             style="fill:#ffffff;fill-opacity:1;fill-rule:nonzero;stroke:none"
             id="path24" />
        </g>
        <g
           id="g26"
           transform="translate(388.5967,236.9006)">
          <path
             d="M 0,0 -8.018,10.966 V 0 h -1.711 v 13.748 h 1.751 l 7.915,-10.74 v 10.74 H 1.648 V 0 Z"
             style="fill:#ffffff;fill-opacity:1;fill-rule:nonzero;stroke:none"
             id="path28" />
        </g>
        <g
           id="g30"
           transform="translate(398.6411,238.1773)">
          <path
             d="M 0,0 C 0.769,0 1.462,0.143 2.08,0.425 2.699,0.705 3.227,1.096 3.667,1.597 4.108,2.1 4.448,2.691 4.688,3.371 4.929,4.053 5.047,4.792 5.047,5.588 5.047,6.384 4.929,7.126 4.688,7.815 4.448,8.5 4.108,9.09 3.667,9.586 3.227,10.081 2.699,10.467 2.08,10.749 1.462,11.031 0.769,11.175 0,11.175 c -0.772,0 -1.467,-0.144 -2.093,-0.426 C -2.72,10.467 -3.252,10.081 -3.691,9.586 -4.132,9.09 -4.467,8.5 -4.702,7.815 -4.934,7.126 -5.05,6.384 -5.05,5.588 -5.05,4.792 -4.934,4.053 -4.702,3.371 -4.467,2.691 -4.132,2.1 -3.691,1.597 -3.252,1.096 -2.72,0.705 -2.093,0.425 -1.467,0.143 -0.772,0 0,0 m 0,-1.525 c -1.018,0 -1.946,0.178 -2.785,0.537 -0.836,0.358 -1.554,0.854 -2.154,1.493 -0.597,0.64 -1.06,1.392 -1.39,2.26 -0.33,0.863 -0.495,1.805 -0.495,2.823 0,1.015 0.165,1.959 0.495,2.822 0.33,0.868 0.793,1.619 1.39,2.259 0.6,0.639 1.318,1.136 2.154,1.494 C -1.946,12.521 -1.018,12.7 0,12.7 1.015,12.7 1.943,12.521 2.782,12.163 3.618,11.805 4.336,11.308 4.936,10.669 5.533,10.029 5.996,9.278 6.327,8.41 6.655,7.547 6.821,6.603 6.821,5.588 6.821,4.57 6.655,3.628 6.327,2.765 5.996,1.897 5.533,1.145 4.936,0.505 4.336,-0.134 3.618,-0.63 2.782,-0.988 1.943,-1.347 1.015,-1.525 0,-1.525"
             style="fill:#ffffff;fill-opacity:1;fill-rule:nonzero;stroke:none"
             id="path32" />
        </g>
        <g
           id="g34"
           transform="translate(414.0347,236.6322)">
          <path
             d="m 0,0 c -1.004,0 -1.948,0.167 -2.834,0.505 -0.885,0.338 -1.663,0.815 -2.33,1.434 -0.667,0.617 -1.192,1.367 -1.576,2.245 -0.386,0.879 -0.578,1.862 -0.578,2.949 0,1.084 0.192,2.066 0.578,2.947 0.384,0.879 0.909,1.629 1.576,2.246 0.667,0.619 1.445,1.094 2.33,1.422 0.886,0.331 1.83,0.497 2.834,0.497 0.714,0 1.364,-0.085 1.948,-0.248 0.584,-0.166 1.11,-0.389 1.577,-0.669 C 3.992,13.046 4.403,12.72 4.762,12.348 5.12,11.977 5.429,11.583 5.69,11.172 L 3.256,9.852 C 2.942,10.335 2.505,10.754 1.948,11.109 1.391,11.467 0.743,11.646 0,11.646 c -0.617,0 -1.192,-0.112 -1.722,-0.34 C -2.25,11.078 -2.706,10.76 -3.091,10.355 -3.475,9.949 -3.775,9.47 -3.988,8.92 -4.203,8.367 -4.307,7.77 -4.307,7.124 c 0,-0.649 0.104,-1.253 0.319,-1.81 0.213,-0.557 0.513,-1.036 0.897,-1.436 0.385,-0.4 0.841,-0.714 1.369,-0.939 C -1.192,2.711 -0.617,2.597 0,2.597 0.619,2.597 1.193,2.708 1.723,2.93 2.25,3.151 2.652,3.393 2.928,3.657 V 5.318 H -0.699 V 7.895 H 5.853 V 2.605 C 5.153,1.818 4.315,1.188 3.339,0.713 2.364,0.239 1.25,0 0,0"
             style="fill:#ffffff;fill-opacity:1;fill-rule:nonzero;stroke:none"
             id="path36" />
        </g>
        <g
           id="g38"
           transform="translate(427.2483,247.7233)">
          <path
             d="m 0,0 -2.145,-5.918 h 4.288 z m 3.793,-10.823 -0.845,2.329 h -5.896 l -0.865,-2.329 h -3.34 l 5.319,13.749 h 3.668 l 5.298,-13.749 z"
             style="fill:#ffffff;fill-opacity:1;fill-rule:nonzero;stroke:none"
             id="path40" />
        </g>
        <g
           id="g42"
           transform="translate(447.0978,236.9006)">
          <path
             d="M 0,0 V 9.627 L -3.876,0 H -5.153 L -9.029,9.627 V 0 h -2.928 v 13.748 h 4.097 l 3.336,-8.306 3.334,8.306 H 2.925 V 0 Z"
             style="fill:#ffffff;fill-opacity:1;fill-rule:nonzero;stroke:none"
             id="path44" />
        </g>
        <g
           id="g46"
           transform="translate(452.2483,236.9006)">
          <path
             d="M 0,0 V 13.748 H 9.729 V 11.172 H 2.928 V 8.264 H 9.586 V 5.688 H 2.928 V 2.577 H 9.729 V 0 Z"
             style="fill:#ffffff;fill-opacity:1;fill-rule:nonzero;stroke:none"
             id="path48" />
        </g>
        <g
           id="g50"
           transform="translate(450.0909,308.6783)">
          <path
             d="m 0,0 v 12.218 c 0,14.56 -11.846,26.412 -26.406,26.412 -7.11,0 -13.575,-2.829 -18.33,-7.413 -4.754,4.584 -11.22,7.413 -18.329,7.413 -14.561,0 -26.407,-11.852 -26.407,-26.412 v -36.655 c 0,-14.567 11.846,-26.413 26.407,-26.413 h 36.659 C -11.846,-50.85 0,-39.004 0,-24.437 v 17.756 h -52.817 v -16.166 h 36.653 v -1.59 c 0,-5.652 -4.597,-10.247 -10.242,-10.247 h -36.659 c -5.646,0 -10.243,4.595 -10.243,10.247 v 36.655 c 0,5.651 4.597,10.248 10.243,10.248 5.651,0 10.248,-4.597 10.248,-10.248 V 0 h 16.163 v 12.218 c 0,5.651 4.597,10.248 10.248,10.248 5.645,0 10.242,-4.597 10.242,-10.248 V 0 Z"
             style="fill:#ffffff;fill-opacity:1;fill-rule:nonzero;stroke:none"
             id="path52" />
        </g>
      </g>
    </g>
  </g>
</svg>
