<svg width="32.387mm" height="51.259mm" version="1.1" viewBox="0 0 32.387 51.259" xmlns="http://www.w3.org/2000/svg">
 <defs>
  <clipPath id="clipPath3">
   <path transform="translate(-394.7 -248.33)" d="M 0,583.94 H 810.71 V 0 H 0 Z"/>
  </clipPath>
  <clipPath id="clipPath5">
   <path transform="translate(-423.96 -246.27)" d="M 0,583.94 H 810.71 V 0 H 0 Z"/>
  </clipPath>
  <clipPath id="clipPath7">
   <path transform="translate(-440.22 -248.33)" d="M 0,583.94 H 810.71 V 0 H 0 Z"/>
  </clipPath>
  <clipPath id="clipPath9">
   <path transform="translate(-371.48 -219.32)" d="M 0,583.94 H 810.71 V 0 H 0 Z"/>
  </clipPath>
  <clipPath id="clipPath11">
   <path transform="translate(-392.87 -237.27)" d="M 0,583.94 H 810.71 V 0 H 0 Z"/>
  </clipPath>
  <clipPath id="clipPath13">
   <path transform="translate(-424.99 -219.75)" d="M 0,583.94 H 810.71 V 0 H 0 Z"/>
  </clipPath>
  <clipPath id="clipPath15">
   <path transform="translate(-433.32 -219.75)" d="M 0,583.94 H 810.71 V 0 H 0 Z"/>
  </clipPath>
  <clipPath id="clipPath17">
   <path transform="translate(-449.09 -325.99)" d="M 0,583.94 H 810.71 V 0 H 0 Z"/>
  </clipPath>
 </defs>
 <g transform="translate(81.756 -31.485)" fill="#ffffff icc-color(sRGB-IEC61966-2, 0.1, 1, 1, 1)">
  <path d="m-75.049 73.238v-6.4597l-2.6712 6.4597h-0.4004l-2.6589-6.4597v6.4597h-0.97684v-7.849h1.4002l2.4363 5.9069 2.4469-5.9069h1.4009v7.849z"/>
  <path transform="matrix(.35278 0 0 -.35278 -69.321 72.509)" d="m0 0c1.245 0 2.367 0.232 3.366 0.688 1.002 0.453 1.857 1.086 2.57 1.897 0.712 0.813 1.263 1.77 1.65 2.869 0.391 1.105 0.583 2.3 0.583 3.589 0 1.288-0.192 2.49-0.583 3.604-0.387 1.108-0.938 2.063-1.65 2.867-0.713 0.8-1.568 1.425-2.57 1.882-0.999 0.456-2.121 0.688-3.366 0.688-1.249 0-2.375-0.232-3.388-0.688-1.014-0.457-1.875-1.082-2.584-1.882-0.713-0.804-1.256-1.759-1.636-2.867-0.377-1.114-0.565-2.316-0.565-3.604 0-1.289 0.188-2.484 0.565-3.589 0.38-1.099 0.923-2.056 1.636-2.869 0.709-0.811 1.57-1.444 2.584-1.897 1.013-0.456 2.139-0.688 3.388-0.688m0-2.468c-1.647 0-3.149 0.289-4.506 0.869-1.354 0.579-2.516 1.382-3.486 2.417-0.966 1.035-1.716 2.252-2.251 3.656-0.532 1.397-0.8 2.921-0.8 4.569 0 1.643 0.268 3.17 0.8 4.567 0.535 1.404 1.285 2.62 2.251 3.656 0.97 1.034 2.132 1.838 3.486 2.417 1.357 0.579 2.859 0.869 4.506 0.869 1.643 0 3.145-0.29 4.502-0.869 1.354-0.579 2.516-1.383 3.486-2.417 0.966-1.036 1.715-2.252 2.251-3.656 0.532-1.397 0.8-2.924 0.8-4.567 0-1.648-0.268-3.172-0.8-4.569-0.536-1.404-1.285-2.621-2.251-3.656-0.97-1.035-2.132-1.838-3.486-2.417-1.357-0.58-2.859-0.869-4.502-0.869" clip-path="url(#clipPath3)"/>
  <path transform="matrix(.35278 0 0 -.35278 -58.998 73.238)" d="m0 0-12.976 17.746v-17.746h-2.768v22.249h2.834l12.808-17.381v17.381h2.769v-22.249z" clip-path="url(#clipPath5)"/>
  <path transform="matrix(.35278 0 0 -.35278 -53.264 72.509)" d="m0 0c1.244 0 2.367 0.232 3.365 0.688 1.002 0.453 1.858 1.086 2.57 1.897 0.713 0.813 1.264 1.77 1.651 2.869 0.391 1.105 0.582 2.3 0.582 3.589 0 1.288-0.191 2.49-0.582 3.604-0.387 1.108-0.938 2.063-1.651 2.867-0.712 0.8-1.568 1.425-2.57 1.882-0.998 0.456-2.121 0.688-3.365 0.688-1.249 0-2.375-0.232-3.388-0.688-1.014-0.457-1.875-1.082-2.585-1.882-0.713-0.804-1.256-1.759-1.635-2.867-0.377-1.114-0.565-2.316-0.565-3.604 0-1.289 0.188-2.484 0.565-3.589 0.379-1.099 0.922-2.056 1.635-2.869 0.71-0.811 1.571-1.444 2.585-1.897 1.013-0.456 2.139-0.688 3.388-0.688m0-2.468c-1.647 0-3.149 0.289-4.506 0.869-1.354 0.579-2.516 1.382-3.486 2.417-0.967 1.035-1.716 2.252-2.251 3.656-0.533 1.397-0.8 2.921-0.8 4.569 0 1.643 0.267 3.17 0.8 4.567 0.535 1.404 1.284 2.62 2.251 3.656 0.97 1.034 2.132 1.838 3.486 2.417 1.357 0.579 2.859 0.869 4.506 0.869 1.642 0 3.145-0.29 4.502-0.869 1.353-0.579 2.515-1.383 3.486-2.417 0.966-1.036 1.715-2.252 2.25-3.656 0.532-1.397 0.801-2.924 0.801-4.567 0-1.648-0.269-3.172-0.801-4.569-0.535-1.404-1.284-2.621-2.25-3.656-0.971-1.035-2.133-1.838-3.486-2.417-1.357-0.58-2.86-0.869-4.502-0.869" clip-path="url(#clipPath7)"/>
  <path transform="matrix(.35278 0 0 -.35278 -77.512 82.745)" d="m0 0c-1.624 0-3.153 0.271-4.586 0.818-1.433 0.546-2.692 1.318-3.771 2.32-1.079 0.999-1.929 2.211-2.551 3.634-0.623 1.422-0.935 3.012-0.935 4.771 0 1.755 0.312 3.344 0.935 4.77 0.622 1.422 1.472 2.635 2.551 3.634 1.079 1.002 2.338 1.77 3.771 2.302 1.433 0.535 2.962 0.803 4.586 0.803 1.155 0 2.208-0.137 3.153-0.401 0.945-0.268 1.795-0.63 2.551-1.082 0.757-0.456 1.422-0.985 2.002-1.586s1.079-1.238 1.502-1.904l-3.938-2.135c-0.51 0.782-1.216 1.458-2.117 2.034-0.902 0.579-1.951 0.868-3.153 0.868-0.999 0-1.929-0.18-2.787-0.549-0.854-0.37-1.592-0.884-2.215-1.539-0.622-0.658-1.107-1.433-1.451-2.324-0.348-0.894-0.517-1.86-0.517-2.906 0-1.05 0.169-2.027 0.517-2.929 0.344-0.901 0.829-1.676 1.451-2.323 0.623-0.647 1.361-1.155 2.215-1.52 0.858-0.37 1.788-0.554 2.787-0.554 1.002 0 1.93 0.181 2.788 0.539 0.853 0.359 1.504 0.749 1.95 1.176v2.69h-5.87v4.17h10.605v-8.561c-1.133-1.274-2.49-2.294-4.069-3.062-1.578-0.767-3.381-1.154-5.404-1.154" clip-path="url(#clipPath9)"/>
  <path transform="matrix(.35278 0 0 -.35278 -69.968 76.413)" d="m0 0-3.471-9.577h6.938zm6.138-17.514-1.368 3.768h-9.54l-1.401-3.768h-5.404l8.607 22.249h5.936l8.573-22.249z" clip-path="url(#clipPath11)"/>
  <path transform="matrix(.35278 0 0 -.35278 -58.636 82.592)" d="m0 0v15.579l-6.273-15.579h-2.067l-6.271 15.579v-15.579h-4.738v22.249h6.63l5.397-13.443 5.396 13.443h6.659v-22.249z" clip-path="url(#clipPath13)"/>
  <path transform="matrix(.35278 0 0 -.35278 -55.696 82.592)" d="m0 0v22.249h15.744v-4.17h-11.006v-4.705h10.774v-4.169h-10.774v-5.035h11.006v-4.17z" clip-path="url(#clipPath15)"/>
  <path transform="matrix(.35278 0 0 -.35278 -50.134 45.113)" d="m0 0v12.218c0 14.56-11.846 26.412-26.406 26.412-7.11 0-13.575-2.829-18.33-7.413-4.754 4.584-11.22 7.413-18.329 7.413-14.561 0-26.407-11.852-26.407-26.412v-36.655c0-14.567 11.846-26.413 26.407-26.413h36.659c14.56 0 26.406 11.846 26.406 26.413v17.756h-52.817v-16.166h36.653v-1.59c0-5.652-4.597-10.247-10.242-10.247h-36.659c-5.646 0-10.243 4.595-10.243 10.247v36.655c0 5.651 4.597 10.248 10.243 10.248 5.651 0 10.248-4.597 10.248-10.248v-12.218h16.163v12.218c0 5.651 4.597 10.248 10.248 10.248 5.645 0 10.242-4.597 10.242-10.248v-12.218z" clip-path="url(#clipPath17)"/>
 </g>
</svg>
