<svg xmlns="http://www.w3.org/2000/svg" fill="currentColor" viewBox="0 0 16 16">
    <path d="m7.7579 3.9095c0 0.052975-0.052975 0.052975-0.052975 0.052975h-0.052976c-0.052975 0-0.052975-0.052975-0.10596-0.10595 0 0-0.052975-0.052975-0.052975-0.10595 0-0.052975 0-0.052975 0.052975-0.052975l0.10596 0.052975c0.052975 0.052975 0.10595 0.10595 0.10595 0.15893m-0.95355-0.52975c0-0.26487-0.10595-0.4238-0.26487-0.4238 0 0 0 0.052975-0.052975 0.052975v0.10595h0.15892c0 0.10595 0.052975 0.15892 0.052975 0.26487h0.10595m1.8541-0.26487c0.10595 0 0.15892 0.10595 0.2119 0.26487h0.10595c-0.052975-0.052975-0.052975-0.10595-0.052975-0.15892 0-0.052975 0-0.10595-0.052975-0.15892-0.052975-0.052975-0.10595-0.10595-0.15892-0.10595 0 0-0.052975 0.052975-0.10595 0.052975 0 0.052975 0.052975 0.052975 0.052975 0.10595m-1.5892 0.8476c-0.052975 0-0.052975 0-0.052975-0.052975s0-0.10595 0.052975-0.15893c0.10595 0 0.15892-0.052975 0.15892-0.052975 0.052975 0 0.052975 0.052975 0.052975 0.052975 0 0.052975-0.052975 0.10595-0.15892 0.2119h-0.052975m-0.58273-0.052976c-0.2119-0.10595-0.26487-0.26488-0.26487-0.52975 0-0.15892 0-0.26487 0.10595-0.37082 0.052975-0.10595 0.15892-0.15893 0.26487-0.15893 0.10595 0 0.15893 0.052975 0.26487 0.15893 0.052975 0.15892 0.10596 0.31785 0.10596 0.47677v0.10595h0.052975v-0.052975c0.052975 0 0.052975-0.10595 0.052975-0.31785 0-0.15892 0-0.31785-0.10595-0.47678-0.10595-0.15892-0.2119-0.26487-0.4238-0.26487-0.15892 0-0.31785 0.10595-0.37082 0.26487-0.10595 0.2119-0.12714 0.37083-0.12714 0.6357 0 0.2119 0.074169 0.4238 0.28607 0.6357 0.052975-0.052975 0.10595-0.052975 0.15892-0.10595m6.6219 7.4695c0.05298 0 0.05298-0.02117 0.05298-0.06887 0-0.11655-0.05298-0.25428-0.2119-0.40791-0.15892-0.15892-0.4238-0.25958-0.74165-0.30196-0.05297-5e-3 -0.10595-5e-3 -0.10595-5e-3 -0.05297-0.01059-0.05297-0.01059-0.10595-0.01059-0.05297-5e-3 -0.15893-0.0159-0.2119-0.02649 0.15892-0.49266 0.2119-0.92706 0.2119-1.3085 0-0.52975-0.10596-0.90057-0.31785-1.2184-0.2119-0.31785-0.4238-0.47677-0.68868-0.52975-0.05297 0.052975-0.05297 0.052975-0.05297 0.10595 0.26487 0.10595 0.52975 0.31785 0.68868 0.6357 0.15892 0.37082 0.2119 0.68867 0.2119 1.0595 0 0.29666-0.05297 0.73635-0.26487 1.2979-0.2119 0.08476-0.4238 0.28076-0.58272 0.58802 0 0.04766 0 0.07416 0.05297 0.07416 0 0 0.05297-0.04766 0.10596-0.13774 0.10595-0.09006 0.15892-0.18011 0.26487-0.27017 0.15892-0.09006 0.26487-0.13773 0.4238-0.13773 0.26488 0 0.52975 0.03707 0.68867 0.11125 0.2119 0.06887 0.31785 0.14303 0.37083 0.22779 0.05297 0.07946 0.10595 0.15363 0.15892 0.22249 0 0.06887 0.05297 0.10065 0.05297 0.10065m-4.8737-7.6814c-0.052975-0.052975-0.052975-0.15892-0.052975-0.26487 0-0.2119 0-0.31785 0.10595-0.47677 0.10595-0.10596 0.2119-0.15893 0.31785-0.15893 0.15892 0 0.26487 0.10596 0.37082 0.2119 0.052975 0.15892 0.10595 0.26487 0.10595 0.4238 0 0.26487-0.10595 0.4238-0.31785 0.47678 0 0 0.052975 0.052975 0.10595 0.052975 0.10595 0 0.15892 0.052975 0.26487 0.10595 0.052975-0.31785 0.10595-0.52975 0.10595-0.79462 0-0.31785-0.052975-0.52975-0.15892-0.68867-0.15892-0.15892-0.31785-0.2119-0.52975-0.2119-0.15892 0-0.31785 0.052975-0.47677 0.15892-0.10595 0.15892-0.15892 0.26487-0.15892 0.4238 0 0.26487 0.052975 0.47677 0.15892 0.68867 0.052975 0 0.10595 0.052975 0.15892 0.052975m0.6357 0.8476c-0.68867 0.47678-1.2184 0.68867-1.6422 0.68867-0.37083 0-0.74165-0.15892-1.0595-0.4238 0.052975 0.10595 0.10595 0.2119 0.15892 0.26487l0.31785 0.31785c0.2119 0.2119 0.47678 0.31785 0.74165 0.31785 0.37083 0 0.79462-0.2119 1.3244-0.58273l0.47677-0.31785c0.10595-0.10595 0.2119-0.2119 0.2119-0.37083 0-0.052975 0-0.10595-0.052975-0.10595-0.052976-0.10595-0.31785-0.26487-0.84759-0.4238-0.47678-0.2119-0.8476-0.31785-1.0595-0.31785-0.15892 0-0.4238 0.10595-0.79462 0.31785-0.31785 0.2119-0.52975 0.4238-0.52975 0.6357 0 0 0.052975 0.052975 0.10595 0.15893 0.31785 0.26487 0.63569 0.4238 0.95355 0.4238 0.4238 0 0.95355-0.2119 1.6422-0.74165v0.10595c0.052975 0 0.052975 0.052975 0.052975 0.052975m1.2184 10.701c0.2119 0.39837 0.58272 0.59862 1.0065 0.59862 0.10595 0 0.2119-0.0159 0.31785-0.04766 0.10595-0.02117 0.2119-0.05827 0.26487-0.10066 0.05297-0.03707 0.10595-0.07416 0.15892-0.11654 0.10595-0.03707 0.10595-0.06357 0.15893-0.09006l0.90057-0.77873c0.2119-0.16899 0.4238-0.31679 0.68867-0.44499 0.2119-0.12714 0.4238-0.2119 0.52975-0.25958 0.15892-0.04239 0.26487-0.10595 0.37082-0.19071 0.05298-0.07946 0.10596-0.18011 0.10596-0.30725 0-0.15363-0.10596-0.27017-0.2119-0.35494-0.10595-0.08476-0.2119-0.14303-0.31785-0.18011-0.10595-0.03707-0.2119-0.12184-0.37082-0.26487-0.10596-0.13773-0.2119-0.32844-0.26488-0.57743l-0.05297-0.30725c-0.05298-0.14303-0.05298-0.24898-0.10595-0.30725 0-0.01591 0-0.02117-0.05298-0.02117-0.05297 0-0.15892 0.04766-0.2119 0.13773-0.10595 0.09006-0.2119 0.19071-0.31785 0.29666-0.05297 0.10595-0.2119 0.2013-0.31785 0.29137-0.15892 0.09005-0.31785 0.13773-0.4238 0.13773-0.4238 0-0.63569-0.11654-0.79462-0.34434-0.10596-0.16951-0.15893-0.36551-0.2119-0.58801-0.10595-0.09006-0.15892-0.13774-0.26487-0.13774-0.26487 0-0.37083 0.27547-0.37083 0.83171v1.6475c0 0.04766-0.05297 0.15363-0.05297 0.31785-0.05297 0.16422-0.05297 0.35069-0.05297 0.56153l-0.10596 0.58802v9e-3m-7.6814-0.28022c0.49267 0.07204 1.0595 0.2262 1.7005 0.46141 0.641 0.23309 1.033 0.35494 1.176 0.35494 0.37082 0 0.67807-0.16423 0.93236-0.48155 0.052975-0.10277 0.052975-0.22355 0.052975-0.36234 0-0.50062-0.30196-1.1337-0.90587-1.9018l-0.36023-0.48207c-0.07416-0.10065-0.16422-0.25428-0.28077-0.46088-0.11125-0.2066-0.2119-0.36552-0.29136-0.47677-0.068866-0.12184-0.18012-0.24368-0.32315-0.36553-0.13773-0.12184-0.29666-0.2013-0.47147-0.24368-0.2225 0.04239-0.37613 0.11654-0.45029 0.2172-0.07416 0.10066-0.11654 0.2119-0.12714 0.32845-0.015908 0.11125-0.047656 0.18541-0.10065 0.22249-0.052975 0.03181-0.14303 0.05827-0.26487 0.08476-0.026488 0-0.074169 0-0.14303 5e-3h-0.14304c-0.28077 0-0.47147 0.03181-0.57212 0.08476-0.13244 0.15363-0.20131 0.32844-0.20131 0.51385 0 0.08476 0.021168 0.2278 0.063572 0.4291 0.042387 0.19601 0.063572 0.35493 0.063572 0.46618 0 0.2172-0.063572 0.4344-0.19601 0.65159-0.13244 0.22779-0.2013 0.39732-0.2013 0.51809 0.052975 0.20554 0.40261 0.35016 1.0436 0.43492m1.7641-4.8154c0-0.36553 0.095359-0.76814 0.29137-1.2449 0.19071-0.47677 0.38142-0.79462 0.56683-1.0065-0.01058-0.052975-0.037068-0.052975-0.079463-0.052975l-0.052975-0.052975c-0.15363 0.15892-0.33904 0.52975-0.56153 1.0595-0.2225 0.47678-0.33904 0.91647-0.33904 1.2396 0 0.23839 0.05827 0.44499 0.16422 0.6251 0.11655 0.17482 0.39731 0.42909 0.8423 0.75224l0.56154 0.36553c0.59862 0.51916 0.91647 0.87938 0.91647 1.0913 0 0.11125-0.052975 0.22249-0.2119 0.34434-0.10595 0.12714-0.24898 0.19071-0.37083 0.19071-0.010588 0-0.015908 0.01058-0.015908 0.03707 0 5e-3 0.052975 0.11125 0.16423 0.31785 0.22249 0.30196 0.69926 0.45029 1.335 0.45029 1.1655 0 2.066-0.47678 2.7547-1.4303 0-0.26487 0-0.42909-0.05297-0.49796v-0.19601c0-0.34434 0.05297-0.60391 0.15892-0.77343 0.10595-0.16952 0.2119-0.24898 0.37082-0.24898 0.10595 0 0.2119 0.03707 0.31785 0.11654 0.05297-0.4079 0.05297-0.76284 0.05297-1.0807 0-0.48207 0-0.87938-0.10595-1.2502-0.052975-0.31785-0.15892-0.58272-0.26487-0.79463l-0.31785-0.47677c-0.10595-0.15892-0.15893-0.31785-0.26488-0.47678-0.052976-0.2119-0.10595-0.37082-0.10595-0.63569-0.15892-0.26488-0.26487-0.52975-0.4238-0.79462-0.10596-0.26488-0.2119-0.52975-0.31785-0.74165l-0.47677 0.37082c-0.52975 0.37083-0.95355 0.52975-1.3244 0.52975-0.31785 0-0.58272-0.052975-0.74165-0.26488l-0.31785-0.26487c0 0.15892-0.052975 0.37083-0.15892 0.58273l-0.33375 0.6357c-0.14833 0.37082-0.22779 0.58272-0.24368 0.74165-0.021168 0.10595-0.037068 0.2119-0.047656 0.2119l-0.39731 0.79462c-0.42909 0.79462-0.64629 1.531-0.64629 2.1402 0 0.12184 0.01058 0.24899 0.031807 0.37612-0.23839-0.16423-0.35493-0.39202-0.35493-0.68867m3.793 5.0114c-0.68867 0-1.2184 0.09323-1.5892 0.27812v-0.01591c-0.26488 0.31785-0.56154 0.48207-0.97474 0.48207-0.25958 0-0.66748-0.10065-1.2184-0.30196-0.55624-0.19071-1.0489-0.33692-1.478-0.43333-0.042387-0.012203-0.13773-0.030184-0.29137-0.054539-0.14833-0.023853-0.28606-0.048217-0.4079-0.072571-0.11125-0.023854-0.23839-0.059859-0.37612-0.1086-0.13244-0.041827-0.23839-0.096418-0.31785-0.16264-0.073107-0.066741-0.10913-0.14197-0.10913-0.2262 0-0.08476 0.018032-0.17535 0.054038-0.27176 0.033932-0.05827 0.070991-0.11654 0.10807-0.16952 0.037068-0.05827 0.068866-0.11125 0.090056-0.16422 0.031807-0.04766 0.052975-0.09536 0.07416-0.14833 0.021168-0.04765 0.042387-0.09535 0.052975-0.15363 0.01058-0.05297 0.021168-0.10595 0.021168-0.15892 0-0.05298-0.021168-0.2119-0.063572-0.49267-0.042387-0.27547-0.063572-0.45028-0.063572-0.52445 0-0.23309 0.052975-0.4185 0.16952-0.55094 0.11655-0.13244 0.2278-0.2013 0.34434-0.2013h0.60921c0.047656 0 0.12184-0.02649 0.23309-0.09006 0.037067-0.08477 0.068866-0.15363 0.090056-0.2172 0.026488-0.06357 0.037076-0.11125 0.047656-0.13244 0.01058-0.03181 0.021168-0.06357 0.031807-0.09006 0.021168-0.03707 0.047656-0.07946 0.084757-0.12184-0.042387-0.05297-0.063572-0.12184-0.063572-0.2066 0-0.05827 0-0.11125 0.01058-0.14303 0-0.19071 0.090056-0.46088 0.28077-0.81582l0.18541-0.33373c0.15363-0.28606 0.27017-0.49796 0.35493-0.70986 0.090062-0.2119 0.18542-0.52975 0.29137-0.95355 0.084757-0.37082 0.28606-0.74165 0.60392-1.1125l0.39731-0.47678c0.27547-0.31785 0.45559-0.58272 0.55624-0.79462 0.10065-0.2119 0.15363-0.47677 0.15363-0.68867 0-0.10595-0.026488-0.4238-0.084757-0.95355-0.052975-0.52975-0.079463-1.0595-0.079463-1.5363 0-0.37083 0.031807-0.6357 0.10065-0.90057 0.068866-0.26488 0.19071-0.52975 0.37082-0.74165 0.15893-0.2119 0.37083-0.4238 0.68867-0.52975 0.31785-0.10594 0.68867-0.15892 1.1125-0.15892 0.15892 0 0.31785 0 0.47678 0.052975 0.15892 0 0.37082 0.052975 0.63569 0.15892 0.2119 0.10595 0.4238 0.2119 0.58273 0.37082 0.2119 0.15892 0.37083 0.4238 0.52975 0.68867 0.10595 0.31785 0.2119 0.6357 0.26487 1.0595 0.05297 0.26488 0.05297 0.52975 0.10595 0.90057 0 0.31785 0.05297 0.52975 0.05297 0.68867 0.05297 0.15892 0.05297 0.37083 0.10595 0.6357 0.05297 0.2119 0.10596 0.4238 0.2119 0.58273 0.10595 0.2119 0.2119 0.4238 0.37082 0.63569 0.15892 0.26488 0.37083 0.52975 0.58273 0.8476 0.47678 0.52975 0.8476 1.1125 1.0595 1.6952 0.26487 0.52975 0.4238 1.2184 0.4238 1.9548 0 0.36552-0.05297 0.72046-0.15893 1.0648 0.10596 0 0.15893 0.04239 0.2119 0.11654 0.05297 0.07416 0.10596 0.23309 0.15893 0.48207l0.05298 0.39201c0.05297 0.11654 0.10595 0.22779 0.26487 0.32315 0.10595 0.09535 0.2119 0.17482 0.37082 0.23839 0.10596 0.05298 0.26488 0.12714 0.37083 0.22249 0.10595 0.10595 0.15892 0.2172 0.15892 0.33374 0 0.18011-0.05297 0.31255-0.15892 0.40791-0.10595 0.10595-0.2119 0.18011-0.37083 0.22779-0.10595 0.05297-0.31785 0.15892-0.6357 0.30832-0.26487 0.1568-0.52975 0.34698-0.79462 0.57212l-0.52975 0.45082c-0.2119 0.20661-0.4238 0.35494-0.58272 0.44499-0.15892 0.09535-0.37083 0.14303-0.58273 0.14303l-0.37083-0.042387c-0.4238-0.11125-0.68867-0.32314-0.8476-0.6463-0.8476-0.10277-1.5363-0.15362-1.9601-0.15362"/>
</svg>
