<?xml version="1.0" encoding="UTF-8" standalone="no"?>
<!-- Created with Inkscape (http://www.inkscape.org/) -->

<svg
   width="500"
   height="500"
   viewBox="0 0 500 500"
   version="1.1"
   id="svg1"
   inkscape:export-filename="New folder\monogame.github.io\images\features\cross-platform-light-theme.png"
   inkscape:export-xdpi="96"
   inkscape:export-ydpi="96"
   inkscape:version="1.3 (0e150ed6c4, 2023-07-21)"
   sodipodi:docname="cross-platform.svg"
   xmlns:inkscape="http://www.inkscape.org/namespaces/inkscape"
   xmlns:sodipodi="http://sodipodi.sourceforge.net/DTD/sodipodi-0.dtd"
   xmlns="http://www.w3.org/2000/svg"
   xmlns:svg="http://www.w3.org/2000/svg">
  <sodipodi:namedview
     id="namedview1"
     pagecolor="#ffffff"
     bordercolor="#000000"
     borderopacity="0.25"
     inkscape:showpageshadow="2"
     inkscape:pageopacity="0.0"
     inkscape:pagecheckerboard="0"
     inkscape:deskcolor="#d1d1d1"
     inkscape:document-units="mm"
     showgrid="true"
     inkscape:zoom="0.73139029"
     inkscape:cx="166.80561"
     inkscape:cy="208.50701"
     inkscape:window-width="1920"
     inkscape:window-height="1017"
     inkscape:window-x="-8"
     inkscape:window-y="356"
     inkscape:window-maximized="1"
     inkscape:current-layer="layer1">
    <inkscape:grid
       id="grid5"
       units="mm"
       originx="0"
       originy="0"
       spacingx="3.7795276"
       spacingy="3.7795276"
       empcolor="#0099e5"
       empopacity="0.30196078"
       color="#0099e5"
       opacity="0.14901961"
       empspacing="5"
       dotted="false"
       gridanglex="30"
       gridanglez="30"
       visible="true" />
  </sodipodi:namedview>
  <defs
     id="defs1" />
  <g
     inkscape:label="Layer 1"
     inkscape:groupmode="layer"
     id="layer1">
    <path
       fill="#e73c00"
       d="m 325.59055,239.67691 v -20.64618 c 0,-24.61399 -20.00728,-44.62129 -44.62128,-44.62129 -12.00438,0 -22.93273,4.77485 -30.96927,12.54239 -8.03654,-7.73392 -18.96489,-12.54239 -30.96926,-12.54239 -24.614,0 -44.62129,20.04092 -44.62129,44.62129 v 61.93853 c 0,24.61402 20.00729,44.62129 44.62129,44.62129 h 61.93853 c 24.614,0 44.62128,-20.00727 44.62128,-44.62129 v -29.99412 h -89.24258 v 27.30406 h 61.93854 v 2.69006 c 0,9.5497 -7.76754,17.31725 -17.31723,17.31725 h -61.93853 c -9.5497,0 -17.31724,-7.76754 -17.31724,-17.31725 v -61.93853 c 0,-9.5497 7.76754,-17.31723 17.31724,-17.31723 9.54969,0 17.31723,7.76753 17.31723,17.31723 v 20.64618 h 27.30405 v -20.64618 c 0,-9.5497 7.76754,-17.31723 17.31725,-17.31723 9.54969,0 17.31723,7.76753 17.31723,17.31723 v 20.64618 z"
       id="path9"
       style="fill:#e73c00;fill-opacity:1;stroke-width:0.336257" />
    <path
       d="m 433.29757,56.777605 c 0,0.357552 -0.35755,0.357552 -0.35755,0.357552 h -0.35754 c -0.35755,0 -0.35755,-0.357552 -0.7151,-0.715095 0,0 -0.35754,-0.357543 -0.35754,-0.715094 0,-0.357544 0,-0.357544 0.35754,-0.357544 l 0.7151,0.357544 c 0.35754,0.357551 0.71509,0.715094 0.71509,1.072637 m -6.43583,-3.575457 c 0,-1.787724 -0.71509,-2.860363 -1.78772,-2.860363 0,0 0,0.357544 -0.35755,0.357544 v 0.715095 h 1.07264 c 0,0.715086 0.35754,1.072638 0.35754,1.787724 h 0.71509 m 12.5141,-1.787724 c 0.7151,0 1.07264,0.715086 1.43018,1.787724 h 0.7151 c -0.35755,-0.357544 -0.35755,-0.715086 -0.35755,-1.072638 0,-0.357543 0,-0.715086 -0.35755,-1.07263 -0.35754,-0.357551 -0.71508,-0.715095 -1.07263,-0.715095 0,0 -0.35755,0.357544 -0.71509,0.357544 0,0.357551 0.35754,0.357551 0.35754,0.715095 m -10.72637,5.720733 c -0.35755,0 -0.35755,0 -0.35755,-0.357552 0,-0.357543 0,-0.715086 0.35755,-1.072637 0.7151,0 1.07264,-0.357544 1.07264,-0.357544 0.35755,0 0.35755,0.357544 0.35755,0.357544 0,0.357551 -0.35755,0.715094 -1.07264,1.430189 h -0.35755 m -3.933,-0.357552 c -1.43018,-0.715086 -1.78772,-1.787724 -1.78772,-3.575457 0,-1.072638 0,-1.787724 0.71508,-2.502819 0.35755,-0.715087 1.07264,-1.072638 1.78773,-1.072638 0.71509,0 1.07265,0.357551 1.78773,1.072638 0.35755,1.072638 0.7151,2.145275 0.7151,3.217914 v 0.715086 h 0.35753 v -0.357543 c 0.35755,0 0.35755,-0.715086 0.35755,-2.145276 0,-1.07263 0,-2.145268 -0.71508,-3.217905 -0.7151,-1.072639 -1.43018,-1.787733 -2.86037,-1.787733 -1.07264,0 -2.14527,0.715094 -2.50282,1.787733 -0.71509,1.43018 -0.85812,2.502819 -0.85812,4.290543 0,1.430181 0.50057,2.860371 1.93075,4.290552 0.35755,-0.357543 0.7151,-0.357543 1.07264,-0.715095 m 44.69321,50.413955 c 0.35754,0 0.35754,-0.14303 0.35754,-0.46482 0,-0.7866 -0.35754,-1.71622 -1.43018,-2.7531 -1.07263,-1.07264 -2.86036,-1.75197 -5.00564,-2.03801 -0.35754,-0.0357 -0.71509,-0.0357 -0.71509,-0.0357 -0.35754,-0.0715 -0.35754,-0.0715 -0.71509,-0.0715 -0.35755,-0.0357 -1.07264,-0.10727 -1.43018,-0.17877 1.07263,-3.325177 1.43018,-6.257056 1.43018,-8.831382 0,-3.575461 -0.71509,-6.07828 -2.14527,-8.223548 -1.43018,-2.145277 -2.86036,-3.217915 -4.6481,-3.575457 -0.35754,0.357542 -0.35754,0.357542 -0.35754,0.715086 1.78772,0.715094 3.57546,2.145276 4.64809,4.290552 1.07264,2.50282 1.43018,4.648096 1.43018,7.150912 0,2.002249 -0.35754,4.969892 -1.78773,8.759877 -1.43018,0.57206 -2.86036,1.89499 -3.933,3.96875 0,0.32179 0,0.50056 0.35755,0.50056 0,0 0.35754,-0.32179 0.71509,-0.92961 0.7151,-0.60783 1.07263,-1.21566 1.78772,-1.82348 1.07264,-0.60783 1.78774,-0.92962 2.86037,-0.92962 1.78773,0 3.57546,0.25028 4.6481,0.75084 1.43018,0.46481 2.14526,0.96538 2.50282,1.53746 0.35754,0.53631 0.71509,1.03687 1.07264,1.50168 0,0.46481 0.35754,0.67934 0.35754,0.67934 m -32.8942,-51.844162 c -0.35754,-0.357543 -0.35754,-1.072638 -0.35754,-1.787724 0,-1.43019 0,-2.145276 0.71508,-3.217915 0.7151,-0.715094 1.43019,-1.072638 2.14528,-1.072638 1.07264,0 1.78772,0.715095 2.50282,1.430182 0.35754,1.072638 0.71509,1.787733 0.71509,2.860371 0,1.787724 -0.71509,2.860362 -2.14527,3.217905 0,0 0.35754,0.357552 0.71508,0.357552 0.7151,0 1.07264,0.357543 1.78773,0.715086 0.35755,-2.145275 0.71509,-3.575457 0.71509,-5.363181 0,-2.145277 -0.35754,-3.575457 -1.07263,-4.648096 -1.07264,-1.072638 -2.14527,-1.430181 -3.57546,-1.430181 -1.07263,0 -2.14527,0.357543 -3.21791,1.072638 -0.71509,1.07263 -1.07264,1.787724 -1.07264,2.860362 0,1.787725 0.35755,3.217915 1.07264,4.648096 0.35754,0 0.7151,0.357543 1.07264,0.357543 m 4.29054,5.720733 c -4.64808,3.217906 -8.22354,4.648095 -11.08391,4.648095 -2.50282,0 -5.00564,-1.072637 -7.15091,-2.86037 0.35755,0.715095 0.71509,1.430181 1.07263,1.787733 l 2.14528,2.145268 c 1.43018,1.430189 3.21791,2.145275 5.00564,2.145275 2.50282,0 5.36319,-1.430181 8.93864,-3.933001 l 3.21791,-2.145275 c 0.71509,-0.715087 1.43018,-1.430182 1.43018,-2.50282 0,-0.357543 0,-0.715086 -0.35755,-0.715086 -0.35754,-0.715095 -2.14527,-1.787733 -5.72072,-2.860371 -3.21792,-1.430181 -5.72073,-2.145276 -7.15091,-2.145276 -1.07264,0 -2.86038,0.715095 -5.36319,2.145276 -2.14528,1.430182 -3.57546,2.860371 -3.57546,4.290552 0,0 0.35755,0.357543 0.7151,1.072638 2.14527,1.787725 4.29054,2.860362 6.43582,2.860362 2.86036,0 6.43581,-1.43018 11.08391,-5.005638 v 0.715087 c 0.35754,0 0.35754,0.357551 0.35754,0.357551 m 8.22355,72.224219 c 1.43018,2.68874 3.93301,4.04027 6.79337,4.04027 0.71509,0 1.43018,-0.10727 2.14527,-0.32179 0.7151,-0.14302 1.43019,-0.3933 1.78774,-0.67935 0.35754,-0.25027 0.71509,-0.50055 1.07263,-0.7866 0.71509,-0.25027 0.71509,-0.42904 1.07264,-0.60782 l 6.07828,-5.25592 c 1.43018,-1.14057 2.86037,-2.13812 4.64808,-3.00339 1.4302,-0.8581 2.86038,-1.43018 3.57546,-1.75197 1.07264,-0.28604 1.78773,-0.71509 2.50282,-1.28716 0.35756,-0.53632 0.7151,-1.21566 0.7151,-2.07376 0,-1.03689 -0.7151,-1.82349 -1.43019,-2.39557 -0.71509,-0.57207 -1.43018,-0.96537 -2.14527,-1.21565 -0.71509,-0.25028 -1.43018,-0.82235 -2.50282,-1.78772 -0.7151,-0.92962 -1.43018,-2.21678 -1.78772,-3.89725 l -0.35756,-2.07376 c -0.35753,-0.96538 -0.35753,-1.68047 -0.71508,-2.07377 0,-0.10726 0,-0.14301 -0.35755,-0.14301 -0.35755,0 -1.07263,0.32179 -1.43018,0.92961 -0.71509,0.60783 -1.43018,1.28717 -2.14527,2.00225 -0.35756,0.7151 -1.43019,1.35868 -2.14528,1.96651 -1.07264,0.60783 -2.14527,0.92962 -2.86037,0.92962 -2.86036,0 -4.29055,-0.7866 -5.36318,-2.32405 -0.71509,-1.14414 -1.07264,-2.46707 -1.43018,-3.96875 -0.7151,-0.60783 -1.07264,-0.92962 -1.78773,-0.92962 -1.78773,0 -2.50283,1.85924 -2.50283,5.61347 v 11.11966 c 0,0.32179 -0.35753,1.03689 -0.35753,2.14528 -0.35755,1.10839 -0.35755,2.36694 -0.35755,3.78998 l -0.7151,3.96875 v 0.0608 m -51.84411,-1.89142 c 3.32517,0.48626 7.1509,1.52673 11.47721,3.11422 4.3263,1.5732 6.97214,2.39557 7.93751,2.39557 2.50282,0 4.57658,-1.10839 6.29281,-3.2501 0.35755,-0.69364 0.35755,-1.50884 0.35755,-2.44561 0,-3.37881 -2.03801,-7.65148 -6.11403,-12.83589 l -2.43132,-3.25366 c -0.50056,-0.67934 -1.10839,-1.71622 -1.89499,-3.11065 -0.75085,-1.39442 -1.43018,-2.46706 -1.9665,-3.21791 -0.46481,-0.82235 -1.21566,-1.6447 -2.18103,-2.46707 -0.92962,-0.82235 -2.00226,-1.35867 -3.18216,-1.6447 -1.50169,0.28603 -2.53857,0.7866 -3.03914,1.46594 -0.50056,0.67934 -0.78659,1.43018 -0.8581,2.21678 -0.10727,0.75084 -0.32179,1.2514 -0.67934,1.50169 -0.35755,0.21452 -0.96538,0.3933 -1.78773,0.57207 -0.17877,0 -0.50056,0 -0.96537,0.0357 h -0.96537 c -1.89499,0 -3.18217,0.21453 -3.8615,0.57207 -0.89387,1.03688 -1.35867,2.21679 -1.35867,3.46819 0,0.57208 0.14301,1.53746 0.42906,2.89612 0.28603,1.32292 0.42905,2.39556 0.42905,3.14641 0,1.46593 -0.42905,2.93187 -1.32292,4.39781 -0.89387,1.53745 -1.35867,2.68159 -1.35867,3.49679 0.35755,1.38728 2.71734,2.36338 7.04365,2.93545 m 11.90627,-32.500898 c 0,-2.467068 0.64358,-5.184416 1.9665,-8.402327 1.28717,-3.217907 2.57432,-5.363183 3.82574,-6.793364 -0.0716,-0.357552 -0.25028,-0.357552 -0.53632,-0.357552 l -0.35755,-0.357542 c -1.03688,1.072637 -2.28829,3.575457 -3.78998,7.150915 -1.50169,3.217917 -2.28829,6.185544 -2.28829,8.366569 0,1.608959 0.3933,3.003389 1.10839,4.219049 0.7866,1.17989 2.68159,2.89611 5.68497,5.07714 l 3.78998,2.46706 c 4.04027,3.50396 6.18555,5.93526 6.18555,7.36544 0,0.75085 -0.35755,1.5017 -1.43018,2.32405 -0.7151,0.85811 -1.68047,1.28717 -2.50283,1.28717 -0.0715,0 -0.10726,0.0715 -0.10726,0.25027 0,0.0357 0.35754,0.75086 1.10839,2.14528 1.5017,2.03801 4.7196,3.03914 9.01015,3.03914 7.86601,0 13.94428,-3.21791 18.59237,-9.65374 0,-1.78772 0,-2.89611 -0.35753,-3.36092 v -1.32293 c 0,-2.32403 0.35753,-4.07601 1.07263,-5.22016 0.71509,-1.14414 1.43018,-1.68047 2.50282,-1.68047 0.71509,0 1.43018,0.25029 2.14527,0.78661 0.35755,-2.7531 0.35755,-5.14866 0.35755,-7.293933 0,-3.253661 0,-5.935261 -0.7151,-8.438082 -0.35754,-2.145268 -1.07263,-3.933001 -1.78772,-5.363183 l -2.14527,-3.217914 c -0.71509,-1.072638 -1.07265,-2.145267 -1.78773,-3.217906 -0.35755,-1.430189 -0.7151,-2.502819 -0.7151,-4.290551 -1.07263,-1.787725 -1.78772,-3.575458 -2.86036,-5.363182 -0.7151,-1.787733 -1.43018,-3.575458 -2.14528,-5.005639 l -3.21791,2.502819 c -3.57546,2.50282 -6.43582,3.575458 -8.93864,3.575458 -2.14527,0 -3.93299,-0.357552 -5.00564,-1.787733 l -2.14528,-1.787725 c 0,1.072639 -0.35753,2.50282 -1.07263,3.933001 l -2.25254,4.290544 c -1.00113,2.502819 -1.53744,3.933008 -1.64471,5.005647 -0.14302,0.715086 -0.25028,1.43018 -0.32179,1.43018 l -2.68159,5.363183 c -2.89612,5.36319 -4.36206,10.333071 -4.36206,14.444846 0,0.82236 0.0715,1.68047 0.21453,2.53857 -1.60895,-1.10839 -2.39555,-2.64583 -2.39555,-4.648088 m 25.60026,33.823818 c -4.64809,0 -8.22355,0.62928 -10.72637,1.87712 v -0.10727 c -1.78773,2.14527 -3.78998,3.25366 -6.57884,3.25366 -1.75197,0 -4.50507,-0.67933 -8.22354,-2.038 -3.75424,-1.28717 -7.07941,-2.27399 -9.97552,-2.92473 -0.28605,-0.0823 -0.92962,-0.2038 -1.96651,-0.36827 -1.00113,-0.1609 -1.93074,-0.32537 -2.7531,-0.48983 -0.75085,-0.1609 -1.60896,-0.40403 -2.53857,-0.73298 -0.89387,-0.28245 -1.60896,-0.65073 -2.14528,-1.09766 -0.49341,-0.45051 -0.73655,-0.95822 -0.73655,-1.52672 0,-0.57207 0.12157,-1.18348 0.3647,-1.83421 0.22883,-0.3933 0.47911,-0.7866 0.7294,-1.14415 0.25028,-0.3933 0.4648,-0.75084 0.60782,-1.10839 0.21454,-0.32179 0.35755,-0.64358 0.50057,-1.00112 0.14302,-0.3218 0.28603,-0.64359 0.35755,-1.03689 0.0715,-0.35754 0.14301,-0.71509 0.14301,-1.07264 0,-0.35754 -0.14301,-1.43018 -0.42906,-3.32517 -0.28603,-1.85923 -0.42905,-3.03913 -0.42905,-3.5397 0,-1.5732 0.35755,-2.82461 1.14415,-3.71848 0.7866,-0.89386 1.53745,-1.35866 2.32405,-1.35866 h 4.11177 c 0.32179,0 0.82236,-0.17878 1.5732,-0.60783 0.25029,-0.57208 0.46481,-1.03689 0.60783,-1.46595 0.17877,-0.42904 0.25028,-0.75083 0.32179,-0.89386 0.0715,-0.21453 0.14302,-0.42905 0.21453,-0.60782 0.14301,-0.25029 0.32179,-0.53632 0.57207,-0.82235 -0.28604,-0.35756 -0.42906,-0.82237 -0.42906,-1.39443 0,-0.39331 0,-0.75085 0.0715,-0.96538 0,-1.28716 0.60783,-3.110651 1.89499,-5.506208 l 1.25141,-2.252529 c 1.03688,-1.930754 1.82348,-3.360937 2.39555,-4.791117 0.60783,-1.430182 1.25141,-3.575459 1.9665,-6.435822 0.57208,-2.502819 1.93075,-5.005638 4.07603,-7.508465 l 2.68159,-3.217906 c 1.85924,-2.145276 3.07489,-3.933001 3.75423,-5.36319 0.67934,-1.430181 1.03688,-3.217906 1.03688,-4.648087 0,-0.715095 -0.17877,-2.860371 -0.57207,-6.435828 -0.35755,-3.575457 -0.53632,-7.150907 -0.53632,-10.36882 0,-2.502819 0.21453,-4.290552 0.67934,-6.078277 0.4648,-1.787729 1.28716,-3.575457 2.50281,-5.00564 1.07265,-1.430183 2.50283,-2.860365 4.6481,-3.575456 2.14527,-0.715067 4.64809,-1.072613 7.50845,-1.072613 1.07263,0 2.14528,0 3.21791,0.357546 1.07265,0 2.50283,0.357546 4.29055,1.072638 1.43019,0.71509 2.86037,1.430181 3.933,2.502819 1.43018,1.072637 2.50283,2.860365 3.57546,4.648093 0.71509,2.145276 1.43018,4.290552 1.78773,7.150915 0.35754,1.787724 0.35754,3.575457 0.71509,6.078276 0,2.145276 0.35755,3.575457 0.35755,4.648095 0.35754,1.072638 0.35754,2.50282 0.71508,4.290544 0.35755,1.430181 0.7151,2.86037 1.43019,3.933001 0.71509,1.430189 1.43018,2.86037 2.50282,4.290552 1.07264,1.787724 2.50282,3.575457 3.933,5.720733 3.21792,3.575457 5.72073,7.508457 7.15091,11.441458 1.78773,3.575458 2.86037,8.223553 2.86037,13.193444 0,2.467064 -0.35754,4.862614 -1.07264,7.186664 0.7151,0 1.07264,0.28604 1.43018,0.7866 0.35755,0.50057 0.7151,1.5732 1.07264,3.25367 l 0.35755,2.64583 c 0.35754,0.7866 0.71509,1.53744 1.78773,2.18104 0.71509,0.64358 1.43018,1.17989 2.50281,1.60895 0.7151,0.35754 1.78774,0.8581 2.50283,1.50169 0.71509,0.71508 1.07263,1.46594 1.07263,2.25254 0,1.21565 -0.35754,2.10951 -1.07263,2.7531 -0.71509,0.71508 -1.43019,1.21565 -2.50283,1.53744 -0.71509,0.35755 -2.14527,1.07263 -4.29054,2.08092 -1.78773,1.05833 -3.57545,2.34192 -5.36319,3.86148 l -3.57545,3.04272 c -1.43019,1.39443 -2.86037,2.39556 -3.93301,3.00339 -1.07263,0.64358 -2.50281,0.96537 -3.933,0.96537 l -2.50282,-0.28603 c -2.86036,-0.75085 -4.64809,-2.18104 -5.72073,-4.36206 -5.72073,-0.69364 -10.36882,-1.03689 -13.22919,-1.03689"
       id="path1-4"
       style="fill:#000000;fill-opacity:1;stroke-width:0.357546" />
    <path
       d="m 126.24757,67.159412 c -0.62818,0.487376 -11.71871,6.736629 -11.71871,20.632279 0,16.072609 14.11227,21.758659 14.53466,21.899459 -0.0649,0.34658 -2.24194,7.7872 -7.44062,15.36861 -4.63549,6.67165 -9.47676,13.33246 -16.84157,13.33246 -7.364804,0 -9.260173,-4.27808 -17.762168,-4.27808 -8.285396,0 -11.231326,4.41888 -17.967954,4.41888 -6.736627,0 -11.437117,-6.17343 -16.841576,-13.75485 -6.260082,-8.90275 -11.317969,-22.73342 -11.317969,-35.8601 0,-21.05467 13.689871,-32.221011 27.163126,-32.221011 7.159034,0 13.126689,4.700477 17.62138,4.700477 4.278083,0 10.949724,-4.982071 19.094331,-4.982071 3.08672,0 14.17724,0.281594 21.47707,10.743947 z M 100.90399,47.501884 c 3.36831,-3.996489 5.75105,-9.541752 5.75105,-15.087014 0,-0.768973 -0.0649,-1.548775 -0.2058,-2.176949 -5.48027,0.205781 -12.000275,3.649909 -15.9318,8.209588 -3.086712,3.509113 -5.967656,9.054375 -5.967656,14.675453 0,0.844787 0.140805,1.689573 0.205784,1.960337 0.346572,0.06499 0.909776,0.140801 1.472965,0.140801 4.917089,0 11.10135,-3.292502 14.675457,-7.722216 z"
       id="path1-0"
       style="fill:#000000;fill-opacity:1;stroke-width:0.108306" />
    <path
       d="m 201.77224,49.802914 39.44401,-5.413884 v 38.118163 h -39.44401 m 44.19498,-38.891576 52.26054,-7.623632 v 46.183747 h -52.26054 m -44.19498,4.353204 h 39.44401 v 38.228634 l -39.44401,-5.52437 m 44.19498,-32.196022 h 52.26054 v 45.741782 l -52.26054,-7.40265"
       id="path1"
       style="fill:#000000;fill-opacity:1;stroke-width:1.10488" />
    <path
       id="ps_logo"
       class="cls-1"
       d="m 37.269579,465.86633 c -8.831247,-2.52495 -10.330817,-7.73697 -6.294138,-10.74016 3.732712,-2.78433 10.079537,-4.86347 10.079537,-4.86347 l 26.210038,-9.36217 v 10.6672 l -18.86215,6.78049 c -3.335528,1.21586 -3.846191,2.90187 -1.134808,3.78945 2.711383,0.88758 7.611327,0.63631 10.942802,-0.56335 l 9.04605,-3.29905 v 9.54455 c -0.571457,0.10538 -1.215867,0.2067 -1.803536,0.30397 a 59.087079,59.087079 0 0 1 -28.183795,-2.25746 z m 55.297627,1.11049 29.411824,-10.49698 c 3.33958,-1.21587 3.85025,-2.89376 1.13887,-3.78135 -2.71139,-0.88758 -7.61134,-0.6363 -10.94281,0.56741 l -19.599779,6.91423 v -11.01981 l 1.134809,-0.38502 a 67.160436,67.160436 0 0 1 13.62176,-2.88972 c 7.96394,-0.87947 17.71519,0.12159 25.36705,3.02346 8.6286,2.73165 9.60129,6.75617 7.40867,9.52834 -2.19261,2.77218 -7.56674,4.74593 -7.56674,4.74593 l -39.965549,14.38371 z m 3.440902,-68.31956 c 15.486092,5.34576 20.734592,12.00061 20.734592,26.9963 0,14.61067 -8.97311,20.15097 -20.369831,14.61877 v -27.24758 c 0,-3.19367 -0.583617,-6.13607 -3.566543,-6.97097 -2.28583,-0.73763 -3.704341,1.39825 -3.704341,4.59193 v 68.18987 l -18.286638,-5.83617 v -81.30096 c 7.777496,1.45093 19.105322,4.86346 25.192761,6.9426 z m 39.313042,74.63397 a 0.66467391,0.66467391 0 0 1 -0.21886,0.57956 1.1510207,1.1510207 0 0 1 -0.66873,0.17022 h -1.40635 v -1.45499 h 1.49146 a 1.1307562,1.1307562 0 0 1 0.48635,0.0892 0.62009213,0.62009213 0 0 1 0.31613,0.61605 z m 1.00916,3.31526 a 0.32017829,0.32017829 0 0 1 -0.14996,-0.22697 1.7062666,1.7062666 0 0 1 -0.0405,-0.40528 l -0.0284,-0.66063 a 1.1874967,1.1874967 0 0 0 -0.17833,-0.68493 1.1064389,1.1064389 0 0 0 -0.30397,-0.25128 1.3658238,1.3658238 0 0 0 0.38503,-0.37692 1.4590403,1.4590403 0 0 0 0.19859,-0.78626 1.2807131,1.2807131 0 0 0 -0.74979,-1.2645 2.3142,2.3142 0 0 0 -0.96053,-0.17428 h -2.35473 v 5.14717 h 0.87948 v -2.11155 h 1.38609 a 1.3374536,1.3374536 0 0 1 0.53903,0.0811 0.57551034,0.57551034 0 0 1 0.28776,0.54714 l 0.0405,0.81057 a 2.7073303,2.7073303 0 0 0 0.0365,0.40529 0.72952015,0.72952015 0 0 0 0.0649,0.19454 l 0.0324,0.0608 h 0.9808 v -0.29991 z m -6.03475,-2.14803 a 3.8542981,3.8542981 0 0 1 1.11049,-2.71949 3.7408172,3.7408172 0 0 1 5.35792,0 3.858351,3.858351 0 0 1 -2.67895,6.56163 3.7408172,3.7408172 0 0 1 -2.67897,-1.12671 3.8542981,3.8542981 0 0 1 -1.11049,-2.71543 z m 3.78946,4.62029 a 4.4784431,4.4784431 0 0 0 3.21799,-1.35772 4.6689289,4.6689289 0 0 0 0,-6.53325 4.4906018,4.4906018 0 0 0 -3.21799,-1.35367 4.6365059,4.6365059 0 0 0 -3.218,7.88692 4.4784431,4.4784431 0 0 0 3.218,1.35772 z"
       style="fill:#000000;fill-opacity:1;fill-rule:evenodd;stroke-width:0.405289" />
    <g
       style="fill:#000000;fill-opacity:1;stroke:none"
       id="g6"
       transform="matrix(0.02598511,0,0,-0.02616402,199.06984,487.85679)">
      <path
         style="fill:#000000;fill-opacity:1"
         inkscape:connector-curvature="0"
         id="path10"
         d="m 1763,3604 c -122,-15 -279,-51 -378,-89 -110,-41 -245,-107 -245,-120 0,-8 24,-15 63,-19 140,-16 400,-125 635,-264 57,-34 113,-62 123,-62 11,0 66,28 122,62 134,81 355,188 457,222 46,15 118,32 161,39 52,7 79,16 79,24 0,29 -233,128 -395,168 -213,53 -409,65 -622,39 z" />
      <path
         style="fill:#000000;fill-opacity:1"
         inkscape:connector-curvature="0"
         id="path12"
         d="M 796,3138 C 529,2866 384,2571 335,2193 c -23,-176 -17,-326 21,-518 37,-185 122,-393 222,-540 66,-98 77,-97 85,8 31,394 337,935 846,1491 44,49 81,95 81,101 0,14 -152,162 -264,258 -150,128 -345,247 -402,247 -22,0 -50,-23 -128,-102 z" />
      <path
         style="fill:#000000;fill-opacity:1"
         inkscape:connector-curvature="0"
         id="path14"
         d="m 2923,3211 c -127,-61 -298,-189 -463,-348 -66,-63 -120,-122 -120,-130 0,-8 49,-69 109,-136 432,-481 706,-940 791,-1324 11,-49 20,-116 20,-150 0,-56 2,-63 19,-63 23,0 114,140 171,265 116,249 157,456 147,742 -10,331 -100,602 -285,862 -85,120 -272,311 -304,311 -13,0 -51,-13 -85,-29 z" />
      <path
         style="fill:#000000;fill-opacity:1"
         inkscape:connector-curvature="0"
         id="path16"
         d="M 1850,2328 C 1613,2122 1300,1798 1122,1573 933,1335 730,1013 730,953 730,934 835,827 930,748 1264,472 1749,344 2205,411 c 352,52 672,212 938,468 41,39 47,50 47,86 -1,184 -362,640 -959,1211 -162,155 -252,234 -266,234 -12,0 -61,-35 -115,-82 z" />
    </g>
    <g
       id="g1"
       transform="matrix(0.11542718,0,0,0.11542718,451.21604,409.76537)"
       style="fill:#000000;fill-opacity:1">
      <path
         d="m -325.16165,-97.866666 c -64.13333,11.466667 -115.73333,58.933332 -131.99999,121.333331 -5.86667,22.533332 -6.26667,35.733332 -5.6,210.533325 0.4,160.53333 0.53333,164.26667 3.2,176.66667 14.8,66.79999 62.26666,114.39999 129.73333,130.13333 8.8,2 20,2.4 92.13333,2.8 74.66666,0.53333 82.4,0.4 84.4,-1.6 2,-2 2.13333,-27.73334 2.13333,-319.46666 0,-216.2666649 -0.4,-318.133329 -1.33333,-319.999996 -1.33334,-2.4 -3.6,-2.533333 -81.73334,-2.4 -63.46666,0.133334 -82.53333,0.533334 -90.93333,2 z m 120.66667,319.999996 v 270.13332 l -54.26667,-0.66666 c -50,-0.53334 -55.33333,-0.8 -65.33333,-3.33334 -42.93333,-11.06666 -74.8,-44.13333 -83.73333,-87.19999 -2.93333,-13.46667 -2.93333,-345.199996 -0.13333,-358.399996 8,-37.4666655 33.99999,-68.533331 69.06666,-82.533331 17.6,-7.066667 25.73333,-7.866667 82.8,-8 l 51.6,-0.133333 z"
         id="path1-3"
         style="fill:#000000;fill-opacity:1;stroke:none;stroke-width:0.133333" />
      <path
         d="m -86.228319,-99.066666 c -0.533334,0.4 -0.933333,144.93333 -0.933333,321.199996 0,290.79999 0.133333,320.26666 2.133333,321.06666 3.6,1.33333 107.066664,0.8 119.866663,-0.53334 54.133332,-6.13333 101.866666,-39.06666 127.866666,-88 3.33333,-6.26666 7.73333,-16.8 10,-23.33333 8.4,-25.06666 8.13333,-18.4 8.13333,-209.99999 0,-152.933333 -0.26667,-175.733333 -2.13333,-185.466666 -13.2,-69.466665 -66.13333,-121.866663 -135.733332,-133.866663 -9.333334,-1.6 -23.733333,-2 -70.133332,-2 -31.999999,0 -58.666665,0.4 -59.066665,0.933333 z M 56.171677,191.33333 c 20.8,5.46666 37.866666,21.33333 44.800003,41.6 4.4,12.53333 4.26666,30.93333 -0.13334,42.4 -8.13333,21.06666 -24.13333,35.86666 -44.666663,41.33333 -33.333332,8.66666 -68.799998,-11.46667 -78.533331,-44.53333 -2.933333,-10.13334 -2.8,-27.2 0.533333,-37.6 10,-32.66667 44.666666,-51.86667 77.999998,-43.2 z"
         id="path3"
         style="fill:#000000;fill-opacity:1;stroke:none;stroke-width:0.133333" />
    </g>
    <path
       class="a"
       d="m 459.4407,264.81143 a 4.4435879,4.4435879 0 1 1 4.44359,-4.44359 4.4435879,4.4435879 0 0 1 -4.44359,4.44359 m -48.92575,0 a 4.4435879,4.4435879 0 1 1 4.44358,-4.44359 4.4435879,4.4435879 0 0 1 -4.44358,4.44359 m 50.49953,-26.66153 8.88717,-15.32112 a 1.8343686,1.8343686 0 1 0 -3.19383,-1.80521 l -8.97975,15.50627 a 54.238618,54.238618 0 0 0 -22.7271,-4.90646 55.152331,55.152331 0 0 0 -22.77339,4.86018 l -8.97975,-15.50628 a 1.8343686,1.8343686 0 0 0 -3.19383,1.80522 l 8.84089,15.32112 a 52.35426,52.35426 0 0 0 -27.1244,41.84378 h 106.32209 a 52.087182,52.087182 0 0 0 -27.0781,-41.7975"
       id="path2"
       style="fill:#000000;fill-opacity:1;stroke-width:0.462874" />
    <g
       id="g2"
       transform="matrix(1.5291254,0,0,1.5291254,-34.538564,-124.16463)"
       style="fill:#000000;fill-opacity:1">
      <path
         d="m 45.006743,264.63472 h -2.227595 v -29.76716 h 2.227595 z M 43.86124,227.57063 c -0.939404,0 -1.716253,-0.74517 -1.716253,-1.68457 0,-0.96713 0.772895,-1.71625 1.716253,-1.71625 0.967131,0 1.736072,0.74516 1.736072,1.71625 0,0.9394 -0.768941,1.68457 -1.736072,1.68457 z"
         fill="url(#c)"
         id="path11"
         style="fill:#000000;fill-opacity:1;fill-rule:evenodd;stroke:none;stroke-width:0.488154;stroke-opacity:1" />
      <path
         d="m 66.643206,265.21563 c -10.892187,0 -17.77321,-7.93154 -17.77321,-20.53958 0,-12.54508 6.912753,-20.50785 17.77321,-20.50785 10.860457,0 17.769304,7.96326 17.769304,20.50785 0,12.60853 -6.881023,20.53958 -17.769304,20.53958 z m 0,-38.99865 c -9.480933,0 -15.533558,7.15829 -15.533558,18.45858 0,11.30858 6.08045,18.4947 15.533558,18.4947 9.480933,0 15.533558,-7.18612 15.533558,-18.4947 0,-11.30419 -6.052625,-18.45858 -15.533558,-18.45858 z"
         fill="url(#b)"
         id="path12-0"
         style="fill:#000000;fill-opacity:1;fill-rule:evenodd;stroke:none;stroke-width:0.488154;stroke-opacity:1" />
      <path
         d="m 100.2746,265.21563 c -8.177076,0 -14.039321,-4.6177 -14.372243,-11.22121 h 2.184003 c 0.33295,5.41461 5.418512,9.20366 12.3547,9.20366 6.76972,0 11.49457,-3.84475 11.49457,-9.0372 0,-4.17772 -2.81817,-6.57983 -9.50486,-8.26445 l -4.724695,-1.16137 c -7.3765,-1.88276 -10.725727,-4.86738 -10.725727,-9.86559 0,-6.21909 5.806596,-10.69791 13.076192,-10.69791 7.51513,0 13.12744,4.42346 13.37738,10.282 h -2.184 c -0.30521,-4.7802 -4.9743,-8.26445 -11.24903,-8.26445 -6.000883,0 -10.781378,3.59506 -10.781378,8.62471 0,3.98348 2.92917,6.27473 9.338392,7.87588 l 4.451186,1.13359 c 7.70942,1.90653 11.16555,4.86739 11.16555,10.17069 0,6.60327 -5.55324,11.22121 -13.90068,11.22121 z"
         fill="url(#a)"
         id="path13"
         style="fill:#000000;fill-opacity:1;fill-rule:evenodd;stroke:none;stroke-width:0.488154;stroke-opacity:1" />
    </g>
  </g>
</svg>
