<svg width="150.99" height="147.57" version="1.1" viewBox="0 0 150.99 147.57" xmlns="http://www.w3.org/2000/svg">
 <defs>
  <clipPath id="clipPath20">
   <path d="M 0,583.94 H 810.71 V 0 H 0 Z"/>
  </clipPath>
 </defs>
 <g transform="matrix(1.3333 0 0 -1.3333 -464.98 463.08)">
  <g transform="translate(360.48 236.9)">
   <path d="m0 0v11.315l-4.679-11.315h-0.701l-4.658 11.315v-11.315h-1.711v13.748h2.453l4.267-10.346 4.286 10.346h2.454v-13.748z" fill="#fff"/>
  </g>
  <g clip-path="url(#clipPath20)">
   <g transform="translate(370.51 238.18)">
    <path d="m0 0c0.769 0 1.462 0.143 2.08 0.425 0.619 0.28 1.147 0.671 1.588 1.172 0.44 0.503 0.78 1.094 1.02 1.774 0.241 0.682 0.36 1.421 0.36 2.217s-0.119 1.538-0.36 2.227c-0.24 0.685-0.58 1.275-1.02 1.771-0.441 0.495-0.969 0.881-1.588 1.163-0.618 0.282-1.311 0.426-2.08 0.426-0.772 0-1.467-0.144-2.093-0.426-0.627-0.282-1.159-0.668-1.597-1.163-0.441-0.496-0.776-1.086-1.012-1.771-0.232-0.689-0.348-1.431-0.348-2.227s0.116-1.535 0.348-2.217c0.236-0.68 0.571-1.271 1.012-1.774 0.438-0.501 0.97-0.892 1.597-1.172 0.626-0.282 1.321-0.425 2.093-0.425m0-1.525c-1.018 0-1.946 0.178-2.785 0.537-0.836 0.358-1.554 0.854-2.154 1.493-0.597 0.64-1.06 1.392-1.39 2.26-0.329 0.863-0.495 1.805-0.495 2.823 0 1.015 0.166 1.959 0.495 2.822 0.33 0.868 0.793 1.619 1.39 2.259 0.6 0.639 1.318 1.136 2.154 1.494 0.839 0.358 1.767 0.537 2.785 0.537 1.015 0 1.944-0.179 2.782-0.537 0.837-0.358 1.555-0.855 2.154-1.494 0.597-0.64 1.06-1.391 1.391-2.259 0.329-0.863 0.494-1.807 0.494-2.822 0-1.018-0.165-1.96-0.494-2.823-0.331-0.868-0.794-1.62-1.391-2.26-0.599-0.639-1.317-1.135-2.154-1.493-0.838-0.359-1.767-0.537-2.782-0.537" fill="#fff"/>
   </g>
   <g transform="translate(388.6 236.9)">
    <path d="m0 0-8.018 10.966v-10.966h-1.711v13.748h1.751l7.915-10.74v10.74h1.711v-13.748z" fill="#fff"/>
   </g>
   <g transform="translate(398.64 238.18)">
    <path d="m0 0c0.769 0 1.462 0.143 2.08 0.425 0.619 0.28 1.147 0.671 1.587 1.172 0.441 0.503 0.781 1.094 1.021 1.774 0.241 0.682 0.359 1.421 0.359 2.217s-0.118 1.538-0.359 2.227c-0.24 0.685-0.58 1.275-1.021 1.771-0.44 0.495-0.968 0.881-1.587 1.163-0.618 0.282-1.311 0.426-2.08 0.426-0.772 0-1.467-0.144-2.093-0.426-0.627-0.282-1.159-0.668-1.598-1.163-0.441-0.496-0.776-1.086-1.011-1.771-0.232-0.689-0.348-1.431-0.348-2.227s0.116-1.535 0.348-2.217c0.235-0.68 0.57-1.271 1.011-1.774 0.439-0.501 0.971-0.892 1.598-1.172 0.626-0.282 1.321-0.425 2.093-0.425m0-1.525c-1.018 0-1.946 0.178-2.785 0.537-0.836 0.358-1.554 0.854-2.154 1.493-0.597 0.64-1.06 1.392-1.39 2.26-0.33 0.863-0.495 1.805-0.495 2.823 0 1.015 0.165 1.959 0.495 2.822 0.33 0.868 0.793 1.619 1.39 2.259 0.6 0.639 1.318 1.136 2.154 1.494 0.839 0.358 1.767 0.537 2.785 0.537 1.015 0 1.943-0.179 2.782-0.537 0.836-0.358 1.554-0.855 2.154-1.494 0.597-0.64 1.06-1.391 1.391-2.259 0.328-0.863 0.494-1.807 0.494-2.822 0-1.018-0.166-1.96-0.494-2.823-0.331-0.868-0.794-1.62-1.391-2.26-0.6-0.639-1.318-1.135-2.154-1.493-0.839-0.359-1.767-0.537-2.782-0.537" fill="#fff"/>
   </g>
   <g transform="translate(414.03 236.63)">
    <path d="m0 0c-1.004 0-1.948 0.167-2.834 0.505-0.885 0.338-1.663 0.815-2.33 1.434-0.667 0.617-1.192 1.367-1.576 2.245-0.386 0.879-0.578 1.862-0.578 2.949 0 1.084 0.192 2.066 0.578 2.947 0.384 0.879 0.909 1.629 1.576 2.246 0.667 0.619 1.445 1.094 2.33 1.422 0.886 0.331 1.83 0.497 2.834 0.497 0.714 0 1.364-0.085 1.948-0.248 0.584-0.166 1.11-0.389 1.577-0.669 0.467-0.282 0.878-0.608 1.237-0.98 0.358-0.371 0.667-0.765 0.928-1.176l-2.434-1.32c-0.314 0.483-0.751 0.902-1.308 1.257-0.557 0.358-1.205 0.537-1.948 0.537-0.617 0-1.192-0.112-1.722-0.34-0.528-0.228-0.984-0.546-1.369-0.951-0.384-0.406-0.684-0.885-0.897-1.435-0.215-0.553-0.319-1.15-0.319-1.796 0-0.649 0.104-1.253 0.319-1.81 0.213-0.557 0.513-1.036 0.897-1.436 0.385-0.4 0.841-0.714 1.369-0.939 0.53-0.228 1.105-0.342 1.722-0.342 0.619 0 1.193 0.111 1.723 0.333 0.527 0.221 0.929 0.463 1.205 0.727v1.661h-3.627v2.577h6.552v-5.29c-0.7-0.787-1.538-1.417-2.514-1.892-0.975-0.474-2.089-0.713-3.339-0.713" fill="#e73c00"/>
   </g>
   <g transform="translate(427.25 247.72)">
    <path d="m0 0-2.145-5.918h4.288zm3.793-10.823-0.845 2.329h-5.896l-0.865-2.329h-3.34l5.319 13.749h3.668l5.298-13.749z" fill="#e73c00"/>
   </g>
   <g transform="translate(447.1 236.9)">
    <path d="m0 0v9.627l-3.876-9.627h-1.277l-3.876 9.627v-9.627h-2.928v13.748h4.097l3.336-8.306 3.334 8.306h4.115v-13.748z" fill="#e73c00"/>
   </g>
   <g transform="translate(452.25 236.9)">
    <path d="m0 0v13.748h9.729v-2.576h-6.801v-2.908h6.658v-2.576h-6.658v-3.111h6.801v-2.577z" fill="#e73c00"/>
   </g>
   <g transform="translate(450.09 308.68)">
    <path d="m0 0v12.218c0 14.56-11.846 26.412-26.406 26.412-7.11 0-13.575-2.829-18.33-7.413-4.754 4.584-11.22 7.413-18.329 7.413-14.561 0-26.407-11.852-26.407-26.412v-36.655c0-14.567 11.846-26.413 26.407-26.413h36.659c14.56 0 26.406 11.846 26.406 26.413v17.756h-52.817v-16.166h36.653v-1.59c0-5.652-4.597-10.247-10.242-10.247h-36.659c-5.646 0-10.243 4.595-10.243 10.247v36.655c0 5.651 4.597 10.248 10.243 10.248 5.651 0 10.248-4.597 10.248-10.248v-12.218h16.163v12.218c0 5.651 4.597 10.248 10.248 10.248 5.645 0 10.242-4.597 10.242-10.248v-12.218z" fill="#e73c00"/>
   </g>
  </g>
 </g>
</svg>
