<?xml version="1.0" encoding="UTF-8" standalone="no"?>
<!-- Created with Inkscape (http://www.inkscape.org/) -->

<svg
   version="1.1"
   id="svg2"
   width="122.40693"
   height="193.73639"
   viewBox="0 0 122.40693 193.73639"
   sodipodi:docname="VerticalLogo.svg"
   inkscape:version="1.3 (0e150ed6c4, 2023-07-21)"
   xmlns:inkscape="http://www.inkscape.org/namespaces/inkscape"
   xmlns:sodipodi="http://sodipodi.sourceforge.net/DTD/sodipodi-0.dtd"
   xmlns="http://www.w3.org/2000/svg"
   xmlns:svg="http://www.w3.org/2000/svg">
  <defs
     id="defs6">
    <clipPath
       clipPathUnits="userSpaceOnUse"
       id="clipPath20">
      <path
         d="M 0,583.94 H 810.71 V 0 H 0 Z"
         id="path18" />
    </clipPath>
  </defs>
  <sodipodi:namedview
     id="namedview4"
     pagecolor="#ffffff"
     bordercolor="#000000"
     borderopacity="0.25"
     inkscape:showpageshadow="2"
     inkscape:pageopacity="0.0"
     inkscape:pagecheckerboard="0"
     inkscape:deskcolor="#d1d1d1"
     inkscape:zoom="1.0398293"
     inkscape:cx="61.548564"
     inkscape:cy="96.650479"
     inkscape:window-width="1920"
     inkscape:window-height="1017"
     inkscape:window-x="-8"
     inkscape:window-y="-8"
     inkscape:window-maximized="1"
     inkscape:current-layer="g8" />
  <g
     id="g8"
     inkscape:groupmode="layer"
     inkscape:label="VerticalLogo"
     transform="matrix(1.3333333,0,0,-1.3333333,-479.26985,486.16185)">
    <g
       id="g10"
       transform="translate(378.4654,246.2676)">
      <path
         d="M 0,0 V 18.311 L -7.572,0 h -1.135 l -7.537,18.311 V 0 h -2.769 v 22.249 h 3.969 L -8.138,5.505 -1.202,22.249 H 2.769 V 0 Z"
         style="fill:#ffffff;fill-opacity:1;fill-rule:nonzero;stroke:none"
         id="path12" />
    </g>
    <g
       id="g14">
      <g
         id="g16"
         clip-path="url(#clipPath20)">
        <g
           id="g22"
           transform="translate(394.7017,248.3336)">
          <path
             d="m 0,0 c 1.245,0 2.367,0.232 3.366,0.688 1.002,0.453 1.857,1.086 2.57,1.897 0.712,0.813 1.263,1.77 1.65,2.869 0.391,1.105 0.583,2.3 0.583,3.589 0,1.288 -0.192,2.49 -0.583,3.604 -0.387,1.108 -0.938,2.063 -1.65,2.867 -0.713,0.8 -1.568,1.425 -2.57,1.882 -0.999,0.456 -2.121,0.688 -3.366,0.688 -1.249,0 -2.375,-0.232 -3.388,-0.688 -1.014,-0.457 -1.875,-1.082 -2.584,-1.882 -0.713,-0.804 -1.256,-1.759 -1.636,-2.867 -0.377,-1.114 -0.565,-2.316 -0.565,-3.604 0,-1.289 0.188,-2.484 0.565,-3.589 0.38,-1.099 0.923,-2.056 1.636,-2.869 0.709,-0.811 1.57,-1.444 2.584,-1.897 C -2.375,0.232 -1.249,0 0,0 m 0,-2.468 c -1.647,0 -3.149,0.289 -4.506,0.869 -1.354,0.579 -2.516,1.382 -3.486,2.417 -0.966,1.035 -1.716,2.252 -2.251,3.656 -0.532,1.397 -0.8,2.921 -0.8,4.569 0,1.643 0.268,3.17 0.8,4.567 0.535,1.404 1.285,2.62 2.251,3.656 0.97,1.034 2.132,1.838 3.486,2.417 1.357,0.579 2.859,0.869 4.506,0.869 1.643,0 3.145,-0.29 4.502,-0.869 1.354,-0.579 2.516,-1.383 3.486,-2.417 0.966,-1.036 1.715,-2.252 2.251,-3.656 0.532,-1.397 0.8,-2.924 0.8,-4.567 0,-1.648 -0.268,-3.172 -0.8,-4.569 C 9.703,3.07 8.954,1.853 7.988,0.818 7.018,-0.217 5.856,-1.02 4.502,-1.599 3.145,-2.179 1.643,-2.468 0,-2.468"
             style="fill:#ffffff;fill-opacity:1;fill-rule:nonzero;stroke:none"
             id="path24" />
        </g>
        <g
           id="g26"
           transform="translate(423.9639,246.2676)">
          <path
             d="M 0,0 -12.976,17.746 V 0 h -2.768 v 22.249 h 2.834 L -0.102,4.868 V 22.249 H 2.667 V 0 Z"
             style="fill:#ffffff;fill-opacity:1;fill-rule:nonzero;stroke:none"
             id="path28" />
        </g>
        <g
           id="g30"
           transform="translate(440.2186,248.3336)">
          <path
             d="m 0,0 c 1.244,0 2.367,0.232 3.365,0.688 1.002,0.453 1.858,1.086 2.57,1.897 0.713,0.813 1.264,1.77 1.651,2.869 0.391,1.105 0.582,2.3 0.582,3.589 0,1.288 -0.191,2.49 -0.582,3.604 -0.387,1.108 -0.938,2.063 -1.651,2.867 -0.712,0.8 -1.568,1.425 -2.57,1.882 -0.998,0.456 -2.121,0.688 -3.365,0.688 -1.249,0 -2.375,-0.232 -3.388,-0.688 -1.014,-0.457 -1.875,-1.082 -2.585,-1.882 -0.713,-0.804 -1.256,-1.759 -1.635,-2.867 -0.377,-1.114 -0.565,-2.316 -0.565,-3.604 0,-1.289 0.188,-2.484 0.565,-3.589 0.379,-1.099 0.922,-2.056 1.635,-2.869 0.71,-0.811 1.571,-1.444 2.585,-1.897 C -2.375,0.232 -1.249,0 0,0 m 0,-2.468 c -1.647,0 -3.149,0.289 -4.506,0.869 -1.354,0.579 -2.516,1.382 -3.486,2.417 -0.967,1.035 -1.716,2.252 -2.251,3.656 -0.533,1.397 -0.8,2.921 -0.8,4.569 0,1.643 0.267,3.17 0.8,4.567 0.535,1.404 1.284,2.62 2.251,3.656 0.97,1.034 2.132,1.838 3.486,2.417 1.357,0.579 2.859,0.869 4.506,0.869 1.642,0 3.145,-0.29 4.502,-0.869 C 5.855,19.104 7.017,18.3 7.988,17.266 8.954,16.23 9.703,15.014 10.238,13.61 10.77,12.213 11.039,10.686 11.039,9.043 11.039,7.395 10.77,5.871 10.238,4.474 9.703,3.07 8.954,1.853 7.988,0.818 7.017,-0.217 5.855,-1.02 4.502,-1.599 3.145,-2.179 1.642,-2.468 0,-2.468"
             style="fill:#ffffff;fill-opacity:1;fill-rule:nonzero;stroke:none"
             id="path32" />
        </g>
        <g
           id="g34"
           transform="translate(371.4839,219.3191)">
          <path
             d="m 0,0 c -1.624,0 -3.153,0.271 -4.586,0.818 -1.433,0.546 -2.692,1.318 -3.771,2.32 -1.079,0.999 -1.929,2.211 -2.551,3.634 -0.623,1.422 -0.935,3.012 -0.935,4.771 0,1.755 0.312,3.344 0.935,4.77 0.622,1.422 1.472,2.635 2.551,3.634 1.079,1.002 2.338,1.77 3.771,2.302 1.433,0.535 2.962,0.803 4.586,0.803 1.155,0 2.208,-0.137 3.153,-0.401 0.945,-0.268 1.795,-0.63 2.551,-1.082 0.757,-0.456 1.422,-0.985 2.002,-1.586 0.58,-0.601 1.079,-1.238 1.502,-1.904 L 5.27,15.944 C 4.76,16.726 4.054,17.402 3.153,17.978 2.251,18.557 1.202,18.846 0,18.846 c -0.999,0 -1.929,-0.18 -2.787,-0.549 -0.854,-0.37 -1.592,-0.884 -2.215,-1.539 -0.622,-0.658 -1.107,-1.433 -1.451,-2.324 -0.348,-0.894 -0.517,-1.86 -0.517,-2.906 0,-1.05 0.169,-2.027 0.517,-2.929 0.344,-0.901 0.829,-1.676 1.451,-2.323 0.623,-0.647 1.361,-1.155 2.215,-1.52 0.858,-0.37 1.788,-0.554 2.787,-0.554 1.002,0 1.93,0.181 2.788,0.539 0.853,0.359 1.504,0.749 1.95,1.176 v 2.69 h -5.87 v 4.17 H 9.473 V 4.216 C 8.34,2.942 6.983,1.922 5.404,1.154 3.826,0.387 2.023,0 0,0"
             style="fill:#e73c00;fill-opacity:1;fill-rule:nonzero;stroke:none"
             id="path36" />
        </g>
        <g
           id="g38"
           transform="translate(392.8673,237.2677)">
          <path
             d="m 0,0 -3.471,-9.577 h 6.938 z m 6.138,-17.514 -1.368,3.768 h -9.54 l -1.401,-3.768 h -5.404 l 8.607,22.249 h 5.936 l 8.573,-22.249 z"
             style="fill:#e73c00;fill-opacity:1;fill-rule:nonzero;stroke:none"
             id="path40" />
        </g>
        <g
           id="g42"
           transform="translate(424.9894,219.7535)">
          <path
             d="M 0,0 V 15.579 L -6.273,0 H -8.34 l -6.271,15.579 V 0 h -4.738 v 22.249 h 6.63 L -7.322,8.806 -1.926,22.249 H 4.733 V 0 Z"
             style="fill:#e73c00;fill-opacity:1;fill-rule:nonzero;stroke:none"
             id="path44" />
        </g>
        <g
           id="g46"
           transform="translate(433.3245,219.7535)">
          <path
             d="m 0,0 v 22.249 h 15.744 v -4.17 H 4.738 V 13.374 H 15.512 V 9.205 H 4.738 V 4.17 H 15.744 V 0 Z"
             style="fill:#e73c00;fill-opacity:1;fill-rule:nonzero;stroke:none"
             id="path48" />
        </g>
        <g
           id="g50"
           transform="translate(449.0909,325.9914)">
          <path
             d="m 0,0 v 12.218 c 0,14.56 -11.846,26.412 -26.406,26.412 -7.11,0 -13.575,-2.829 -18.33,-7.413 -4.754,4.584 -11.22,7.413 -18.329,7.413 -14.561,0 -26.407,-11.852 -26.407,-26.412 v -36.655 c 0,-14.567 11.846,-26.413 26.407,-26.413 h 36.659 C -11.846,-50.85 0,-39.004 0,-24.437 v 17.756 h -52.817 v -16.166 h 36.653 v -1.59 c 0,-5.652 -4.597,-10.247 -10.242,-10.247 h -36.659 c -5.646,0 -10.243,4.595 -10.243,10.247 v 36.655 c 0,5.651 4.597,10.248 10.243,10.248 5.651,0 10.248,-4.597 10.248,-10.248 V 0 h 16.163 v 12.218 c 0,5.651 4.597,10.248 10.248,10.248 5.645,0 10.242,-4.597 10.242,-10.248 V 0 Z"
             style="fill:#e73c00;fill-opacity:1;fill-rule:nonzero;stroke:none"
             id="path52" />
        </g>
      </g>
    </g>
  </g>
</svg>
