<svg xmlns="http://www.w3.org/2000/svg" fill="currentColor" viewBox="0 0 16 16">
    <path d="m0.63568 12.369h-0.49482v-6.6122h0.49482zm-0.25445-8.2331c-0.20867 0-0.38123-0.16552-0.38123-0.3742 0-0.21483 0.17168-0.38123 0.38123-0.38123 0.21483 0 0.38564 0.16552 0.38564 0.38123 0 0.20867-0.17081 0.3742-0.38564 0.3742z"/>
    <path d="m5.4418 12.498c-2.4195 0-3.948-1.7618-3.948-4.5625 0-2.7866 1.5355-4.5554 3.948-4.5554 2.4124 0 3.9471 1.7689 3.9471 4.5554 0 2.8007-1.5285 4.5625-3.9471 4.5625zm0-8.6628c-2.106 0-3.4505 1.5901-3.4505 4.1002 0 2.512 1.3507 4.1082 3.4505 4.1082 2.106 0 3.4505-1.5963 3.4505-4.1082 0-2.511-1.3445-4.1002-3.4505-4.1002z"/>
    <path d="m12.912 12.498c-1.8164 0-3.1186-1.0257-3.1925-2.4926h0.48513c0.07396 1.2028 1.2036 2.0444 2.7444 2.0444 1.5038 0 2.5533-0.85404 2.5533-2.0074 0-0.928-0.626-1.4616-2.1113-1.8358l-1.0495-0.25798c-1.6385-0.41822-2.3825-1.0812-2.3825-2.1914 0-1.3815 1.2898-2.3763 2.9046-2.3763 1.6693 0 2.916 0.98259 2.9715 2.2839h-0.48513c-0.0678-1.0618-1.1049-1.8358-2.4988-1.8358-1.333 0-2.3949 0.79857-2.3949 1.9158 0 0.88486 0.65066 1.3938 2.0743 1.7495l0.98875 0.2518c1.7125 0.4235 2.4802 1.0812 2.4802 2.2592 0 1.4668-1.2335 2.4926-3.0878 2.4926z"/>
</svg>
