<svg xmlns="http://www.w3.org/2000/svg" fill="currentColor" viewBox="0 0 48 48">
<path fill="#FFFFFF" d="M38.914 13.35c0 5.574-5.144 12.15-12.927 12.15H18.49l-.368 2.322L16.373 39H7.056l5.605-36h15.095c5.083 0 9.082 2.833 10.555 6.77a9.687 9.687 0 0 1 .603 3.58z"/>
<path d="M 44.284 23.7 C 43.257 29.941 37.855 34.515 31.53 34.5 L 26.324 34.5 L 24.157 48 L 14.89 48 L 16.174 40.558 L 17.414 40.608 L 19.714 27.021 L 25.922 27.105 C 33.695 27.105 40.138 20.275 40.138 14.701 C 43.963 16.675 44.969 19.313 44.284 23.7 Z" fill="#FFFFFF"/>
</svg>

